<svg xmlns="http://www.w3.org/2000/svg" viewBox="0 0 437.231 399.933" id="people-protesting">
  <g id="Layer_2">
    <g id="Layer_1-2">
      <path fill="#fff4f2" d="M149.56965,383.76768C58.85349,354.05013-23.5369,301.98087,14.14866,186.94149S299.66152,26.58033,390.37768,56.29788s-10.03119,123.221-47.71674,238.2604S240.28581,413.48524,149.56965,383.76768Z"></path>
      <path fill="#eca085" d="M206.87765,217.86793l-.96656,15.82676a5.4685,5.4685,0,0,0,2.18293,4.58358l7.681,6.19508a2.18139,2.18139,0,0,0,1.59289.42736h0a1.66672,1.66672,0,0,0,1.66364-1.723h0a3.31546,3.31546,0,0,0-1.27158-2.08491l-5.8778-4.66037s-.41129-7.21454-.10032-6.15993l3.15736,3.14649a1.58372,1.58372,0,0,0,2.33205-.23263h0a.91829.91829,0,0,0,.13047-.68231,5.26435,5.26435,0,0,0-1.26-2.354l-.89621-.98672s.42994-8.15459-2.26613-11.97039Z"></path>
      <polygon fill="#eca085" points="204.642 176.929 209.032 140.381 225.26 142.542 219.353 178.306 214.401 221.57 206.5 225.348 204.642 176.929"></polygon>
      <path fill="#eca085" d="M255.37622,109.92263v9.31029l5.05435,1.10822s-2.1833,20.73178-12.2633,15.21178S233.56439,121.467,235.72439,120.747l4.76288-1.75409.43328-8.66747Z"></path>
      <path fill="#eca085" d="M233.76726,91.673c0-11.86316,6.33966-21.4801,14.16-21.4801s14.16,9.61694,14.16,21.4801l-.00031.009c.03082-.00061.05939-.009.09033-.009a4.71,4.71,0,0,1,0,9.41992,4.662,4.662,0,0,1-1.45849-.25378c-2.26892,7.2716-7.13587,12.31384-12.79151,12.31384-5.649,0-10.511-5.03052-12.78344-12.28833a4.66017,4.66017,0,0,1-1.37659.22827,4.71,4.71,0,1,1,0-9.41992Z"></path>
      <path fill="#200100" d="M260.52727,95.87292s.84-16.56-5.04-20.16c0,0-2.16-2.76-8.28,3.72S235.139,82.44,235.139,82.44s-1.49177,11.15292-.53177,13.43292c0,0-8.64-14.76.84-22.32s14.64-4.92,22.2,0C257.64727,73.55292,271.80727,75.23292,260.52727,95.87292Z"></path>
      <path fill="#200100" d="M258.84372 87.98029s-4.51789-1.87431-6.8768 2.42366M245.46519 90.62046s-1.89558-4.509-6.59463-3.11051"></path>
      <ellipse cx="254.283" cy="93.548" fill="#200100" rx="1.02" ry="1.53"></ellipse>
      <ellipse cx="242.643" cy="93.128" fill="#200100" rx="1.02" ry="1.53"></ellipse>
      <path fill="#200100" d="M248.82275 92.79841a7.66865 7.66865 0 0 1 .91882 2.00391 7.54431 7.54431 0 0 1 .35956 2.21533 3.67415 3.67415 0 0 1-.20587 1.21 1.48558 1.48558 0 0 1-1.066.96045 1.84367 1.84367 0 0 1-1.23291-.27734 3.67247 3.67247 0 0 1-.8736-.71241 3.71788 3.71788 0 0 0 1.91193.23389c.35339-.14844.47442-.76563.4671-1.42676a20.01524 20.01524 0 0 0-.12238-2.0498C248.913 94.25349 248.84057 93.54255 248.82275 92.79841ZM265.14275 97.27839a8.0888 8.0888 0 0 0-1.6759-1.17822 1.7379 1.7379 0 0 0-.822-.14844c-.31958-.00439-.66748.08106-1.10211.12647a1.78922 1.78922 0 0 1 .90948-.88282 1.72335 1.72335 0 0 1 1.39478-.01953 2.13667 2.13667 0 0 1 .99658.8916A2.038 2.038 0 0 1 265.14275 97.27839ZM230.54278 97.27839a2.03812 2.03812 0 0 1 .29913-1.21094 2.13672 2.13672 0 0 1 .99658-.8916 1.72335 1.72335 0 0 1 1.39478.01953 1.78919 1.78919 0 0 1 .90948.88282c-.43463-.04541-.78253-.13086-1.10211-.12647a1.7379 1.7379 0 0 0-.822.14844A8.0888 8.0888 0 0 0 230.54278 97.27839ZM254.8839 110.37312a8.74643 8.74643 0 0 1-2.92309 2.26269 9.097 9.097 0 0 1-3.65265.93018 8.45436 8.45436 0 0 1-3.71191-.67432 9.10374 9.10374 0 0 1-1.64881-.88086 13.32326 13.32326 0 0 1-1.41754-1.18261c.57819.23 1.09644.53222 1.65167.751a13.89762 13.89762 0 0 0 1.67041.5752 10.27656 10.27656 0 0 0 3.4151.4126A13.69366 13.69366 0 0 0 254.8839 110.37312Z"></path>
      <ellipse cx="245.913" cy="104.18" fill="#200100" rx="2.25" ry="2.565"></ellipse>
      <path fill="#eca085" d="M287.71234,49.07287s-10.21855-7.35963-15.2-13.87883l-.03088-.07845h0a3.00531,3.00531,0,0,1-.14382-1.81955,1.89241,1.89241,0,0,1,2.393-1.55616,3.091,3.091,0,0,1,1.68507.89759l2.46175,2.4845s7.01069-8.22039,13.69875-6.03923a6.52393,6.52393,0,0,1,3.27408,2.47072h0c2.8947,6.293,1.6172,14.90154,1.6172,14.90154Z"></path>
      <polygon fill="#34a853" points="278.672 209.353 278.672 374.473 256.592 374.473 253.712 230.473 247.952 230.473 236.912 374.473 214.832 374.473 224.432 209.353 278.672 209.353"></polygon>
      <path fill="#df382b" d="M232.11232,380.23292s6,16.8.96,19.2h-5.04s-2.4-6.72-5.76,0h-30.72s-1.92-5.28,5.52-7.68,19.92-11.52,19.92-11.52Z"></path>
      <polygon fill="#eca085" points="233.072 374.473 232.112 380.233 216.992 380.233 216.992 374.473 233.072 374.473"></polygon>
      <path fill="#df382b" d="M260.30541,380.23292s-6,16.8-.96,19.2h5.04s2.4-6.72,5.76,0h30.72s1.92-5.28-5.52-7.68-19.92-11.52-19.92-11.52Z"></path>
      <polygon fill="#eca085" points="259.345 374.473 260.305 380.233 275.425 380.233 275.425 374.473 259.345 374.473"></polygon>
      <path fill="#23893c" d="M246.56249,230.06159a21.5192,21.5192,0,0,1,4.89008-.49951,21.274,21.274,0,0,1,4.89007.49951,21.27353,21.27353,0,0,1-4.89007.5A21.51929,21.51929,0,0,1,246.56249,230.06159Z"></path>
      <path fill="#eca085" d="M285.535,104.99226l18.48-14.20687a5.97586,5.97586,0,0,0,2.25182-8.063c-5.92435-10.7482-19.07-34.58428-19.07-34.58428l9.2406-5.10179,1.03012,3.41872,28.3058,36.54922a8.76919,8.76919,0,0,1,.34728,10.07006,6.37915,6.37915,0,0,1-.40973,1.0261c-4.86215,9.57275-32.95543,29.10475-32.95543,29.10475Z"></path>
      <path fill="#fabb05" d="M296.43859,120.44908,288.349,104.6978a3,3,0,0,0-4.4071-1.07438l-23.51133,16.71772s-1.658,15.54563-13.80717,11.60536c0,0-6.56712-.65671-11.1641-11.82081,0,0-30.86545-6.23876-27.91025,25.61176l13.791,2.62684,2.62684,62.05926s33.36235,18.30236,54.70548-1.07063c0,0-1.57385-69.41182,17.07815-85.28764A2.96724,2.96724,0,0,0,296.43859,120.44908Z"></path>
      <path fill="#e26a90" d="M254.4455 100.26a.75045.75045 0 0 0 0-1.5.75045.75045 0 0 0 0 1.5ZM256.5755 98.43a.75045.75045 0 0 0 0-1.5.75045.75045 0 0 0 0 1.5ZM256.9355 101.19a.75045.75045 0 0 0 0-1.5.75045.75045 0 0 0 0 1.5ZM239.997 100.19533a.75045.75045 0 0 0 0-1.5.75045.75045 0 0 0 0 1.5ZM240.244 97.398a.75045.75045 0 0 0 0-1.5.75045.75045 0 0 0 0 1.5ZM243.02175 99.2147a.75045.75045 0 0 0 0-1.5.75045.75045 0 0 0 0 1.5Z"></path>
      <path fill="#eda606" d="M274.63134,178.36628a33.94673,33.94673,0,0,1-1.189,10.0459,32.43874,32.43874,0,0,1-4.07032,9.3335,29.48384,29.48384,0,0,1-3.15655,4.03418,26.53843,26.53843,0,0,1-3.86334,3.354,27.52231,27.52231,0,0,1-9.19336,4.21924,37.068,37.068,0,0,0,4.5603-2.11231,27.717,27.717,0,0,0,4.17273-2.72314,29.81779,29.81779,0,0,0,6.64117-7.31494,37.09084,37.09084,0,0,0,4.17408-9.0044,41.36512,41.36512,0,0,0,1.22924-4.85107A38.93842,38.93842,0,0,0,274.63134,178.36628Z"></path>
      <path fill="#eda606" d="M269.74853,178.97566a33.938,33.938,0,0,1-2.60358,9.7749,32.43668,32.43668,0,0,1-5.35455,8.66113,29.46751,29.46751,0,0,1-3.69745,3.54492,26.52785,26.52785,0,0,1-4.30054,2.77149,27.52149,27.52149,0,0,1-9.69928,2.8706,37.0213,37.0213,0,0,0,4.814-1.44287,27.74245,27.74245,0,0,0,4.51715-2.103,29.82512,29.82512,0,0,0,7.61267-6.29737,37.09279,37.09279,0,0,0,5.41052-8.3208,41.37164,41.37164,0,0,0,1.90576-4.62695A38.96683,38.96683,0,0,0,269.74853,178.97566Z"></path>
      <path fill="#eca085" d="M280.72418,36.51476l12.4258.373c1.99435.05988,2.81292-.69781,2.86334-1.67484,0,0,1.37-.96405-.78015-4.71866a6.258,6.258,0,0,0-2.34345-2.31887l-1.58035-.89718a7.43723,7.43723,0,0,0-8.15909.52535l-.54264.404a9.01982,9.01982,0,0,0-2.45457,2.77756,9.30323,9.30323,0,0,0-1.15985,3.55894A1.76573,1.76573,0,0,0,280.72418,36.51476Z"></path>
      <path fill="#200100" d="m283.00638 36.58328 1.11961.03361.13144-4.378a.56006.56006 0 0 0-1.11961-.03361ZM286.005 36.6733l1.11961.03362.13144-4.378a.56006.56006 0 0 0-1.11961-.03362ZM289.00368 36.76333l1.11961.03361.13144-4.378a.56006.56006 0 0 0-1.11961-.03361ZM292.00233 36.85336l1.11961.03361.13144-4.378a.56006.56006 0 0 0-1.11962-.03362Z"></path>
      <path fill="#200100" d="M279.07275,33.99226a2.15944,2.15944,0,0,0,.33142,1.58447,2.232,2.232,0,0,0,1.35846.79248l-.0304-.00439c2.70526-.0044,5.40735.05517,8.10932.15918,1.351.05322,2.702.09863,4.05279.188a5.71,5.71,0,0,0,1.96942-.04688A1.64354,1.64354,0,0,0,296.0133,35.213a1.78356,1.78356,0,0,1-.26489.98389,1.82717,1.82717,0,0,1-.81055.66015,2.247,2.247,0,0,1-1.03259.19336l-1.01429-.002c-1.35254.00781-2.70483-.02783-4.05719-.05566-2.70471-.05811-5.40918-.16114-8.11059-.32813l-.02161-.001-.00915-.00293a3.105,3.105,0,0,1-.81476-.35206,1.90559,1.90559,0,0,1-.62055-.63574A2.13444,2.13444,0,0,1,279.07275,33.99226Z"></path>
      <rect width="16.226" height="22.32" x="227.083" y="143.993" fill="#eda606"></rect>
      <path fill="#ffa574" d="M25.98344 314.20834c3.86072 0 3.86711-6 0-6-3.86071 0-3.8671 6 0 6ZM34.4381 244.92375c5.62665 0 5.636-8.74447 0-8.74447-5.62665 0-5.636 8.74447 0 8.74447Z"></path>
      <path fill="#ffd1ca" d="M385.862,108.36773c3.86072,0,3.86711-6,0-6-3.86071,0-3.86711,6,0,6Z"></path>
      <path fill="#ffa574" d="M50.05223,87.57351a1.76792,1.76792,0,0,0,0-3.53373,1.76792,1.76792,0,0,0,0,3.53373Z"></path>
      <path fill="#fff4f2" d="M237.97316,46.5306c3.86071,0,3.86711-6,0-6-3.86072,0-3.86711,6,0,6Z"></path>
      <path fill="#ffa574" d="M202.44341 91.11978c3.86071 0 3.86711-6 0-6-3.86072 0-3.86711 6 0 6ZM122.52341 269.31978c3.86071 0 3.86711-6 0-6-3.86072 0-3.86711 6 0 6Z"></path>
      <path fill="#ffd1ca" d="M19.92341 152.67978c3.86071 0 3.86711-6 0-6-3.86072 0-3.86711 6 0 6ZM316.92341 41.43978c3.86071 0 3.86711-6 0-6-3.86072 0-3.86711 6 0 6Z"></path>
      <path fill="#ffa574" d="M355.80341 75.99978c3.86071 0 3.86711-6 0-6-3.86072 0-3.86711 6 0 6ZM384.96341 187.23978c3.86071 0 3.86711-6 0-6-3.86072 0-3.86711 6 0 6Z"></path>
      <path fill="#ffd1ca" d="M362.28341,261.75978c3.86071,0,3.86711-6,0-6-3.86072,0-3.86711,6,0,6Z"></path>
      <path fill="#ffa574" d="M200.19658,329.9198c3.86071,0,3.8671-6,0-6-3.86072,0-3.86711,6,0,6Z"></path>
      <path fill="#ffd1ca" d="M204.5977,277.78834a1.5009,1.5009,0,0,0,0-3,1.5009,1.5009,0,0,0,0,3Z"></path>
      <path fill="#ffa574" d="M148.4377 356.62834a1.5009 1.5009 0 0 0 0-3 1.5009 1.5009 0 0 0 0 3ZM320.1577 354.46834a1.5009 1.5009 0 0 0 0-3 1.5009 1.5009 0 0 0 0 3ZM181.9177 210.82834a1.5009 1.5009 0 0 0 0-3 1.5009 1.5009 0 0 0 0 3Z"></path>
      <path fill="#fff4f2" d="M160.40305 48.92942a1.5009 1.5009 0 0 0 0-3 1.5009 1.5009 0 0 0 0 3ZM316.92341 61.53978a1.5009 1.5009 0 0 0 0-3 1.5009 1.5009 0 0 0 0 3Z"></path>
      <path fill="#fed4c0" d="m121.90879 104.99226 20.07913-13.921a5.97586 5.97586 0 0 0 2.25182-8.063c-2.70288-4.90367-7.82433-15.09516-11.59929-21.94083a67.17809 67.17809 0 0 0-9.06987-12.92936l9.24059-5.10179 3.55564 3.44452L162.1471 83.00422a8.7692 8.7692 0 0 1 .34728 10.07006 6.37915 6.37915 0 0 1-.40973 1.0261c-4.86215 9.57275-32.95543 29.10475-32.95543 29.10475ZM91.75 109.92263v9.31029l5.05435 1.10822S94.621 141.07292 84.541 135.55292 69.93816 121.467 72.09816 120.747l4.76288-1.75409.43328-8.66747Z"></path>
      <path fill="#fed4c0" d="M70.141,91.673c0-11.86316,6.33966-21.4801,14.16-21.4801s14.16,9.61694,14.16,21.4801l-.0003.009c.03082-.00061.05939-.009.09033-.009a4.71,4.71,0,0,1,0,9.41992,4.66215,4.66215,0,0,1-1.4585-.25378c-2.26892,7.2716-7.13586,12.31384-12.7915,12.31384-5.64905,0-10.51105-5.03052-12.78345-12.28833a4.66,4.66,0,0,1-1.37658.22827,4.71,4.71,0,0,1,0-9.41992Z"></path>
      <path fill="#200100" d="M96.901,95.87292s.84-16.56-5.04-20.16c0,0-2.16-2.76-8.28,3.72S71.51281,82.44,71.51281,82.44,70.021,93.59292,70.981,95.87292c0,0-8.64-14.76.84-22.32s14.64-4.92,22.2,0C94.021,73.55292,108.181,75.23292,96.901,95.87292Z"></path>
      <path fill="#200100" d="M85.19653 92.79849a7.66031 7.66031 0 0 1 .91879 2.00391 7.53939 7.53939 0 0 1 .35956 2.21484 3.66916 3.66916 0 0 1-.20584 1.21 1.48367 1.48367 0 0 1-1.066.96045 1.8407 1.8407 0 0 1-1.23286-.27686 3.67255 3.67255 0 0 1-.87363-.7124 3.72316 3.72316 0 0 0 1.91194.23389c.35339-.14844.47439-.76563.46708-1.42676a20.02961 20.02961 0 0 0-.12236-2.05029C85.28678 94.25357 85.21432 93.54263 85.19653 92.79849ZM95.21749 87.98029S90.6996 86.106 88.34069 90.404M81.839 90.62046s-1.89558-4.509-6.59464-3.11051"></path>
      <ellipse cx="90.657" cy="93.548" fill="#200100" rx="1.02" ry="1.53"></ellipse>
      <ellipse cx="79.017" cy="93.128" fill="#200100" rx="1.02" ry="1.53"></ellipse>
      <path fill="#200100" d="M101.51653 97.27847a8.0898 8.0898 0 0 0-1.67593-1.17822 1.73783 1.73783 0 0 0-.822-.14844c-.31957-.0044-.66746.08105-1.10212.12646a1.78928 1.78928 0 0 1 .90948-.88281 1.72142 1.72142 0 0 1 1.39479-.01953 2.13406 2.13406 0 0 1 .99658.8916A2.03717 2.03717 0 0 1 101.51653 97.27847ZM66.91653 97.27847a2.03718 2.03718 0 0 1 .29916-1.21094 2.134 2.134 0 0 1 .99657-.8916 1.72144 1.72144 0 0 1 1.3948.01953 1.78922 1.78922 0 0 1 .90947.88281c-.43465-.04541-.78255-.13086-1.10212-.12646a1.73781 1.73781 0 0 0-.82194.14844A8.08957 8.08957 0 0 0 66.91653 97.27847ZM91.25766 110.3732a8.75219 8.75219 0 0 1-2.92311 2.26269 9.08829 9.08829 0 0 1-3.65264.92969 8.44706 8.44706 0 0 1-3.7119-.67383 9.10419 9.10419 0 0 1-1.64879-.88086 13.38754 13.38754 0 0 1-1.41756-1.1831c.5782.23 1.09643.53271 1.65169.75146a13.89418 13.89418 0 0 0 1.67038.5752 10.28909 10.28909 0 0 0 3.41509.41259A13.69347 13.69347 0 0 0 91.25766 110.3732Z"></path>
      <ellipse cx="82.287" cy="104.18" fill="#200100" rx="2.25" ry="2.565"></ellipse>
      <polygon fill="#df382b" points="115.046 209.353 115.046 374.473 92.966 374.473 90.086 230.473 84.326 230.473 73.286 374.473 51.206 374.473 60.806 209.353 115.046 209.353"></polygon>
      <path fill="#fabb05" d="M68.48608,380.23292s6,16.8.96,19.2h-5.04s-2.4-6.72-5.76,0h-30.72s-1.92-5.28,5.52-7.68,19.92-11.52,19.92-11.52Z"></path>
      <polygon fill="#fed4c0" points="69.446 374.473 68.486 380.233 53.366 380.233 53.366 374.473 69.446 374.473"></polygon>
      <path fill="#fabb05" d="M96.67918,380.23292s-6,16.8-.96,19.2h5.04s2.4-6.72,5.76,0h30.72s1.92-5.28-5.52-7.68-19.92-11.52-19.92-11.52Z"></path>
      <polygon fill="#fed4c0" points="95.719 374.473 96.679 380.233 111.799 380.233 111.799 374.473 95.719 374.473"></polygon>
      <path fill="#b7251d" d="M82.93625,230.06167a21.49169,21.49169,0,0,1,4.89007-.49951,21.27372,21.27372,0,0,1,4.89007.49951,21.24608,21.24608,0,0,1-4.89007.49951A21.49169,21.49169,0,0,1,82.93625,230.06167Z"></path>
      <path fill="#fed4c0" d="M47.23894,104.99226,27.50341,91.67292c-4.56-4.09941-3.97239-5.69953-2.4-8.55222,3.24728-5.89136,10.56767-18.45824,14.8001-26.13327a56.8591,56.8591,0,0,1,5.67364-8.84936l-9.2406-5.10179-3.313,3.44452L7.00063,83.00422a8.76919,8.76919,0,0,0-.34728,10.07006,6.37915,6.37915,0,0,0,.40973,1.0261c4.86215,9.57275,32.95543,29.10475,32.95543,29.10475Z"></path>
      <path fill="#34a853" d="M37.058,120.97538l8.0896-15.75134a3,3,0,0,1,4.4071-1.07434L73.066,120.86747s2.178,12.73633,15.36554,12.06616c7.23571-1.47461,8.37274-12.06616,8.37274-12.06616l23.51135-16.71777a3,3,0,0,1,4.4071,1.07434l8.0896,15.75134a2.96729,2.96729,0,0,1-.68811,3.61621c-18.652,15.87573-17.07818,85.2876-17.07818,85.2876-21.34314,19.37305-54.70545,1.07056-54.70545,1.07056L51.2061,155.55936l.00287-.00219a17.57065,17.57065,0,0,1-1.09289-3.48145c-2.54157-11.9436-6.43018-22.42846-12.37-27.48413A2.96732,2.96732,0,0,1,37.058,120.97538Z"></path>
      <rect width="96.224" height="66.48" x="36.417" fill="#f4f4f4" transform="rotate(-180 84.529 33.24)"></rect>
      <path fill="#fa81a2" d="M91.929 101.1a1.5009 1.5009 0 0 0 0-3 1.5009 1.5009 0 0 0 0 3ZM76.929 100.14a1.5009 1.5009 0 0 0 0-3 1.5009 1.5009 0 0 0 0 3Z"></path>
      <path fill="#23893c" d="M52.00782 105.36782c-1.67088 3.68213-3.60406 7.2129-5.60151 10.70655-2.02362 3.47851-4.11306 6.91894-6.46713 10.20654 1.66881-3.6831 3.60226-7.21387 5.60151-10.70605C47.56612 112.09732 49.65581 108.65689 52.00782 105.36782ZM59.57034 110.74527c-.94793 2.3999-1.99426 4.75146-3.05551 7.09619-1.051 2.34961-2.17251 4.66455-3.2943 6.979-1.14314 2.30469-2.28812 4.60791-3.50254 6.87744l-1.82484 3.40235c-.6411 1.11816-1.25133 2.251-1.91965 3.356.46475-1.20459.98759-2.38086 1.47956-3.57177l1.57436-3.52539c1.05172-2.34913 2.17289-4.66455 3.29589-6.97852 1.14435-2.30371 2.289-4.60742 3.50411-6.87646C57.03231 115.23013 58.25212 112.96353 59.57034 110.74527ZM68.71653 117.695c-.99 4.79395-2.08621 9.56153-3.19859 14.3252-1.11012 4.76416-2.30745 9.50635-3.45688 14.26025-1.228 4.73487-2.41406 9.47949-3.68131 14.2041L56.45947 167.567c-.67556 2.35157-1.31776 4.71192-2.02272 7.05616.485-2.39942 1.03281-4.78321 1.54723-7.17579l1.64967-7.1499c1.11271-4.76318 2.30657-9.50635 3.45858-14.25976 1.23052-4.73389 2.41316-9.48 3.683-14.2041C66.04282 127.10952 67.32652 122.38882 68.71653 117.695ZM79.01653 129.90005c-.83441 6.97608-1.77722 13.93652-2.73647 20.894l-2.99982 20.8545-3.22867 20.8208-1.69552 10.398c-.60134 3.46093-1.16865 6.92675-1.8 10.38281.40705-3.48975.8781-6.96973 1.31514-10.45508l1.41959-10.43945 3.00156-20.85449 3.2304-20.82032C76.64027 143.74673 77.7742 136.81509 79.01653 129.90005ZM88.43157 132.40738c.15578 7.14892.202 14.29687.23153 21.44482l-.03475 21.44287L88.36223 196.736l-.21516 10.72021c-.10828 3.57276-.18216 7.14649-.32075 10.71924-.08816-3.5747-.11161-7.14844-.16945-10.72265L87.593 196.73062l.0365-21.44287.26788-21.44092C88.02785 146.69986 88.1749 139.55337 88.43157 132.40738ZM94.1625 128.09536c1.94 6.72022 3.77392 13.46729 5.5917 20.21924l5.33379 20.28516 5.10969 20.34277 2.47534 10.19238c.7897 3.40625 1.61271 6.8042 2.37305 10.21778-.98-3.35742-1.89724-6.731-2.84784-10.09619l-2.74556-10.12207-5.33209-20.28614-5.108-20.34326C97.34978 141.71353 95.70306 134.91812 94.1625 128.09536ZM96.80434 120.341c1.95731 3.26367 3.81771 6.57812 5.66342 9.90088 1.84777 3.32129 3.616 6.68457 5.428 10.0249 1.74035 3.37793 3.51886 6.73584 5.22339 10.13281l2.5391 5.105c.814 1.71875 1.65849 3.42139 2.44573 5.1543-.98773-1.62695-1.91825-3.28418-2.87918-4.92529l-2.78579-4.97461c-1.84541-3.32276-3.61684-6.68408-5.42642-10.02588-1.738-3.3794-3.51967-6.73535-5.22184-10.13379C100.08649 127.2023 98.397 123.79751 96.80434 120.341ZM106.26215 113.61636c1.58623 1.78271 3.08458 3.63086 4.56961 5.48877 1.49418 1.85156 2.92539 3.74951 4.35635 5.64795 1.4119 1.9126 2.82216 3.82666 4.1704 5.78662l2.01949 2.94238c.64385 1.00293 1.31528 1.98487 1.93482 3.00537-.80134-.88525-1.5508-1.80908-2.32784-2.7124l-2.24318-2.77539c-1.49354-1.85205-2.92506-3.75-4.35494-5.64892-1.41082-1.91358-2.82139-3.82715-4.169-5.78809C108.86112 117.609 107.51769 115.64517 106.26215 113.61636ZM119.029 104.53824c2.14261 3.48437 4.01319 7.10156 5.81712 10.75195 1.77679 3.66308 3.48532 7.35986 4.91941 11.19043-2.14475-3.48291-4.01506-7.10059-5.81712-10.75147C122.17353 112.06509 120.46526 108.36831 119.029 104.53824Z"></path>
      <path fill="#23893c" d="M41.29821 112.193a113.35941 113.35941 0 0 0 7.91053 13.248 90.02263 90.02263 0 0 0 9.68874 11.95117A52.629 52.629 0 0 0 70.89764 146.841a26.91625 26.91625 0 0 0 28.83251-.86426c1.095-.65088 2.11643-1.417 3.15538-2.15576.99141-.80371 2.01192-1.57275 2.9484-2.44482a69.39126 69.39126 0 0 0 5.43409-5.41944 102.38048 102.38048 0 0 0 9.27071-12.28906c2.83514-4.293 5.39476-8.7666 7.856-13.29443-4.54561 9.23632-9.79385 18.22119-16.54974 26.09228a60.0421 60.0421 0 0 1-5.436 5.55664c-.9457.89014-1.98026 1.68067-2.98552 2.5044-1.05534.76123-2.0932 1.54785-3.2107 2.22216a29.31238 29.31238 0 0 1-14.74513 4.84668 29.26139 29.26139 0 0 1-15.00926-3.959 50.9414 50.9414 0 0 1-12.11322-9.71387A98.75948 98.75948 0 0 1 41.29821 112.193ZM50.11608 151.54947A61.62994 61.62994 0 0 0 57.26 158.41519a60.4095 60.4095 0 0 0 8.08514 5.668 43.49318 43.49318 0 0 0 18.50544 6.12793 37.65347 37.65347 0 0 0 19.06189-3.65723 62.70786 62.70786 0 0 0 16.1166-11.34912c-1.17081 1.16992-2.332 2.35644-3.53657 3.49805-1.26958 1.0664-2.47932 2.21386-3.80459 3.21826-1.3491.97119-2.64709 2.02295-4.09192 2.85888-.70966.43653-1.40812.894-2.12853 1.31348l-2.22269 1.1543a37.69267 37.69267 0 0 1-19.47193 3.959 43.2343 43.2343 0 0 1-18.8215-6.46679A57.16062 57.16062 0 0 1 50.11608 151.54947ZM54.43675 177.29361a62.3707 62.3707 0 0 0 6.733 5.04052 63.59775 63.59775 0 0 0 7.27579 4.166 59.12268 59.12268 0 0 0 7.74486 3.13916 43.25621 43.25621 0 0 0 8.14291 1.731 35.73287 35.73287 0 0 0 16.40472-1.7544 37.80458 37.80458 0 0 0 7.51809-3.61914 41.501 41.501 0 0 0 3.49182-2.32812c.5889-.38428 1.10307-.86377 1.65454-1.29737l1.64364-1.32129a41.25743 41.25743 0 0 1-14.0434 9.28809 35.5679 35.5679 0 0 1-16.78545 2.02441 46.91569 46.91569 0 0 1-16.1178-5.1792A57.6419 57.6419 0 0 1 54.43675 177.29361ZM58.52115 199.39029a56.838 56.838 0 0 0 6.71563 3.9707 60.54968 60.54968 0 0 0 7.12706 3.11084A48.67276 48.67276 0 0 0 87.48063 209.571a39.22 39.22 0 0 0 7.704-.39844 41.65273 41.65273 0 0 0 7.47392-1.93847 39.42838 39.42838 0 0 0 6.97962-3.36231c1.14264-.61963 2.19093-1.38769 3.27053-2.11377 1.068-.74219 2.06031-1.5874 3.10857-2.36767a41.46036 41.46036 0 0 1-13.0836 8.562 38.09846 38.09846 0 0 1-15.4922 2.6167 47.296 47.296 0 0 1-15.3498-3.38135A52.96135 52.96135 0 0 1 58.52115 199.39029Z"></path>
      <path fill="#df382b" d="M45.74163 14.83357a3.67729 3.67729 0 0 1 .48633-.16211 2.52291 2.52291 0 0 1 .66992-.09082 2.43 2.43 0 0 1 .98682.17578.77123.77123 0 0 1 .47949.51465q.15528.57861.28906 1.0791c.08936.333.17627.65332.26074.958q.12672.45849.24707.91015.11939.45117.23243.94434h.07031q.12744-.85986.22558-1.64258.09888-.78222.1836-1.53711.08423-.75439.16894-1.49414.085-.74121.16944-1.50195a2.22064 2.22064 0 0 1 1.11377-.2959 1.73846 1.73846 0 0 1 .90234.22558.81361.81361 0 0 1 .38086.76172 8.66959 8.66959 0 0 1-.06348.88086q-.06372.57129-.16943 1.27637-.10547.70459-.24658 1.48047-.14136.7749-.2959 1.47949-.156.706-.31738 1.27637a6.60306 6.60306 0 0 1-.30323.88086 1.63436 1.63436 0 0 1-.69091.32519 3.86764 3.86764 0 0 1-.98682.127 3.14015 3.14015 0 0 1-1.12109-.17676.83139.83139 0 0 1-.55664-.501c-.12256-.375-.25391-.82226-.395-1.33887s-.29151-1.08593-.45118-1.706q-.19775.917-.40869 1.791-.21166.873-.38086 1.47949a1.601 1.601 0 0 1-.63427.32519 3.25157 3.25157 0 0 1-.93067.127 3.5404 3.5404 0 0 1-1.14941-.17676 1.07018 1.07018 0 0 1-.66944-.501 4.81137 4.81137 0 0 1-.2749-.7539q-.14794-.49952-.30322-1.14161-.15528-.64159-.31738-1.38964-.16187-.74708-.2959-1.49415t-.24707-1.459q-.1128-.71192-.169-1.30469a1.97983 1.97983 0 0 1 .54981-.33789A1.86688 1.86688 0 0 1 42.541 12.691a1.54474 1.54474 0 0 1 .88134.23242 1.08674 1.08674 0 0 1 .43018.78223q.22559 1.43847.37354 2.39746.14795.95948.23974 1.57226.09156.61231.13379.95118.04248.33837.08447.53613h.0708q.12672-.564.23975-1.04395.1128-.479.23242-.96582.12012-.48633.24707-1.043Q45.60077 15.5533 45.74163 14.83357ZM53.96185 14.05818a1.217 1.217 0 0 1 1.311-1.31055h4.65283a1.68571 1.68571 0 0 1 .17627.4082 1.82989 1.82989 0 0 1 .07764.53614 1.03379 1.03379 0 0 1-.23242.76171.84446.84446 0 0 1-.61328.22559h-2.9751v1.31055h3.17236a1.7411 1.7411 0 0 1 .17627.40234 1.76515 1.76515 0 0 1 .07764.52832 1.05584 1.05584 0 0 1-.22559.76172.82028.82028 0 0 1-.60644.22559H56.35882v1.48046h3.62353a1.69632 1.69632 0 0 1 .17627.40918 1.83489 1.83489 0 0 1 .07764.53516 1.05781 1.05781 0 0 1-.23291.76856.8276.8276 0 0 1-.61328.23242H55.27288a1.217 1.217 0 0 1-1.311-1.31055ZM68.86517 14.46736a2.08743 2.08743 0 0 0-1.66407.66308 2.76265 2.76265 0 0 0-.57812 1.875 2.60864 2.60864 0 0 0 .6416 1.88965 2.29363 2.29363 0 0 0 1.72705.66211 2.72541 2.72541 0 0 0 .98-.15527 6.55451 6.55451 0 0 0 .76856-.35254 1.40276 1.40276 0 0 1 .37353.47265 1.44986 1.44986 0 0 1 .13428.64161 1.15477 1.15477 0 0 1-.6416.97949 3.7442 3.7442 0 0 1-1.95313.40234 5.7865 5.7865 0 0 1-1.77637-.26758 3.96778 3.96778 0 0 1-1.45214-.82519 3.88656 3.88656 0 0 1-.98-1.41016 5.22787 5.22787 0 0 1-.35938-2.03711A5.05351 5.05351 0 0 1 64.4306 15.067a4.10589 4.10589 0 0 1 .94482-1.417 3.96833 3.96833 0 0 1 1.40283-.874 4.91582 4.91582 0 0 1 1.72022-.29688 3.96681 3.96681 0 0 1 2.00927.42286 1.2471 1.2471 0 0 1 .71192 1.08593 1.09672 1.09672 0 0 1-.1836.63477 1.5078 1.5078 0 0 1-.42285.42285 4.61015 4.61015 0 0 0-.78222-.40918A2.56146 2.56146 0 0 0 68.86517 14.46736ZM71.99505 17.00544a5.11562 5.11562 0 0 1 .34521-1.94629 3.91911 3.91911 0 0 1 2.3545-2.2832 5.338 5.338 0 0 1 3.51074 0 4.09038 4.09038 0 0 1 1.417.86621 3.991 3.991 0 0 1 .95215 1.417 5.12506 5.12506 0 0 1 .34521 1.94629 5.26876 5.26876 0 0 1-.33838 1.95313 3.9452 3.9452 0 0 1-.9375 1.42383 4.00327 4.00327 0 0 1-1.417.86718 5.18684 5.18684 0 0 1-1.77685.2959 5.06932 5.06932 0 0 1-1.77637-.30371 3.94467 3.94467 0 0 1-1.41016-.88086 4.07335 4.07335 0 0 1-.93017-1.42383A5.17093 5.17093 0 0 1 71.99505 17.00544Zm2.5376 0a2.96917 2.96917 0 0 0 .522 1.917 1.86747 1.86747 0 0 0 2.80566 0 2.97216 2.97216 0 0 0 .52149-1.917 2.97565 2.97565 0 0 0-.51465-1.90332 1.71029 1.71029 0 0 0-1.40283-.63476 1.74111 1.74111 0 0 0-1.40283.62793A2.91259 2.91259 0 0 0 74.53265 17.00544ZM89.90081 18.13337a3.58263 3.58263 0 0 1-.26074 1.38867 2.93818 2.93818 0 0 1-.7544 1.07129 3.40045 3.40045 0 0 1-1.19824.68457 5.42448 5.42448 0 0 1-3.18652 0 3.39836 3.39836 0 0 1-1.19873-.68457 2.9313 2.9313 0 0 1-.75391-1.07129 3.57393 3.57393 0 0 1-.26123-1.38867V12.74763c.10352-.01953.26807-.04492.49365-.07813a4.59442 4.59442 0 0 1 .64844-.04882 2.99616 2.99616 0 0 1 .57129.04882 1.0171 1.0171 0 0 1 .416.17676.7564.7564 0 0 1 .25341.35254 1.711 1.711 0 0 1 .085.5918v4.30078a1.4398 1.4398 0 0 0 .37354 1.05664 1.42371 1.42371 0 0 0 1.93848 0 1.45706 1.45706 0 0 0 .3667-1.05664V12.74763c.10351-.01953.26806-.04492.49365-.07813a4.58884 4.58884 0 0 1 .64844-.04882 2.99084 2.99084 0 0 1 .5708.04882 1.01413 1.01413 0 0 1 .416.17676.76063.76063 0 0 1 .25391.35254 1.72414 1.72414 0 0 1 .08447.5918ZM93.00237 21.33357a1.217 1.217 0 0 1-1.311-1.31055v-7.29c.10351-.01855.26806-.04394.49365-.07715a4.45342 4.45342 0 0 1 .64844-.0498 2.91127 2.91127 0 0 1 .5708.0498 1.02648 1.02648 0 0 1 .416.17578.76556.76556 0 0 1 .25391.35254 1.72638 1.72638 0 0 1 .08447.59278v5.56933h3.229a1.84885 1.84885 0 0 1 .1831.415 1.74865 1.74865 0 0 1 .08448.543 1.085 1.085 0 0 1-.23926.79688.87266.87266 0 0 1-.63477.23242ZM102.16692 21.51716c-.15966 0-.34326-.00488-.5498-.01367-.20654-.00977-.4209-.02832-.6416-.05664s-.4419-.06348-.6626-.10547a3.39738 3.39738 0 0 1-.61328-.17676 1.04916 1.04916 0 0 1-.77539-1.0293v-6.584a.61942.61942 0 0 1 .16211-.459 1.17038 1.17038 0 0 1 .44433-.26075 5.93343 5.93343 0 0 1 1.28272-.26074q.67675-.063 1.21289-.06347a6.9447 6.9447 0 0 1 1.99512.26855 4.09437 4.09437 0 0 1 1.53662.82422 3.71722 3.71722 0 0 1 .99414 1.40332 5.18646 5.18646 0 0 1 .35254 2.002 5.23888 5.23888 0 0 1-.33838 1.9668 3.79722 3.79722 0 0 1-.96582 1.41016 4.03193 4.03193 0 0 1-1.502.85253A6.25054 6.25054 0 0 1 102.16692 21.51716Zm-.78955-2.05859q.15528.02782.38086.0498c.15039.01367.291.02051.42285.02051a2.65431 2.65431 0 0 0 .88135-.14063 1.76967 1.76967 0 0 0 .69092-.4375 2.02178 2.02178 0 0 0 .45117-.76855 3.51127 3.51127 0 0 0 .16211-1.13477 2.72674 2.72674 0 0 0-.59228-1.91015 2.04554 2.04554 0 0 0-1.57911-.6416c-.13183 0-.26562.00488-.40185.01367-.13623.00976-.2749.02441-.416.043ZM116.05511 20.99568a1.28689 1.28689 0 0 1-.57129.30273 3.321 3.321 0 0 1-.895.10645 3.12716 3.12716 0 0 1-.98731-.15528 1.36608 1.36608 0 0 1-.76123-.748l-1.396-2.84766q-.21094-.43653-.38037-.8252-.1692-.38671-.3667-.89453l-.08448.01367q.05567.76173.06348 1.55079.0066.78954.00684 1.55078v2.18554a3.90981 3.90981 0 0 1-.47217.085 4.72435 4.72435 0 0 1-.62744.042 3.17678 3.17678 0 0 1-.54981-.042.84937.84937 0 0 1-.395-.16895.82036.82036 0 0 1-.23974-.3457 1.61387 1.61387 0 0 1-.08448-.57129V13.18415a1.17913 1.17913 0 0 1 .60645-.42285 2.66874 2.66874 0 0 1 .874-.14062 3.03563 3.03563 0 0 1 .99414.16211 1.34289 1.34289 0 0 1 .75391.74023l1.41016 2.84766q.21167.438.38086.82519.16918.38819.36621.89551l.0708-.01465q-.0564-.76172-.0708-1.52246-.01392-.76171-.01367-1.52246V12.74763a3.889 3.889 0 0 1 .47216-.085 4.71888 4.71888 0 0 1 .62744-.042 1.69422 1.69422 0 0 1 .94483.21777 1.03847 1.03847 0 0 1 .32422.91016ZM119.11419 15.34138a1.00227 1.00227 0 0 1-.3667.35254 1.12959 1.12959 0 0 1-.53564.11328 2.05744 2.05744 0 0 1-.49366-.05664 2.34061 2.34061 0 0 1-.437-.15527q.07032-.85988.14111-1.71973.07032-.85986.09864-1.59375a2.61281 2.61281 0 0 1 .51465-.21094 2.04157 2.04157 0 0 1 .61328-.09863 2.32626 2.32626 0 0 1 .44433.042 1.13587 1.13587 0 0 1 .3877.14746.78226.78226 0 0 1 .26807.28223.87483.87483 0 0 1 .09863.43066 3.80191 3.80191 0 0 1-.05664.62012 5.08036 5.08036 0 0 1-.16211.67676 6.5607 6.5607 0 0 1-.23975.64844A3.31259 3.31259 0 0 1 119.11419 15.34138ZM120.86272 14.72126a1.85116 1.85116 0 0 1-.1831-.42285 1.87377 1.87377 0 0 1-.08447-.56445 1.0662 1.0662 0 0 1 .24658-.78906.881.881 0 0 1 .6416-.24024h6.14746a1.98866 1.98866 0 0 1 .26758.98731 1.06469 1.06469 0 0 1-.24658.78906.88106.88106 0 0 1-.6416.24023h-1.56495v6.51367a3.90993 3.90993 0 0 1-.48632.085 5.15465 5.15465 0 0 1-.65577.042 2.9864 2.9864 0 0 1-.5708-.04883 1.014 1.014 0 0 1-.416-.17676.76051.76051 0 0 1-.25391-.35254 1.72408 1.72408 0 0 1-.08447-.59179V14.72126ZM58.04339 38.43611c-.16016 0-.34815-.00489-.564-.01368q-.32445-.01464-.66992-.05664-.3457-.04248-.68359-.10547a3.36542 3.36542 0 0 1-.62061-.17675 1.04917 1.04917 0 0 1-.77539-1.0293v-6.584a.61944.61944 0 0 1 .16211-.459 1.17047 1.17047 0 0 1 .44434-.26074 5.42317 5.42317 0 0 1 1.19824-.24609 13.784 13.784 0 0 1 1.48047-.07813 5.27406 5.27406 0 0 1 2.77783.60645 2.05372 2.05372 0 0 1 .97266 1.875 1.693 1.693 0 0 1-.3667 1.09277 2.09058 2.09058 0 0 1-.98682.66992 2.44375 2.44375 0 0 1 1.17725.71875 1.8817 1.8817 0 0 1 .47217 1.31152 2.28574 2.28574 0 0 1-1.03614 2.06543A5.50847 5.50847 0 0 1 58.04339 38.43611Zm-.91651-5.42871h1.0293a1.385 1.385 0 0 0 .88086-.22559.80484.80484 0 0 0 .27539-.66211.70776.70776 0 0 0-.31738-.60645 1.644 1.644 0 0 0-.95166-.22558c-.14111 0-.30322.00488-.48633.01367a3.65153 3.65153 0 0 0-.43018.043Zm0 3.44042a2.5171 2.5171 0 0 0 .50733.07813q.31054.0205.59228.02051a1.7423 1.7423 0 0 0 .9375-.23242.79354.79354 0 0 0 .374-.72559.72477.72477 0 0 0-.31055-.66309 1.78726 1.78726 0 0 0-.94434-.19726H57.12688ZM65.91058 35.44685v2.707a3.909 3.909 0 0 1-.48633.085 5.14889 5.14889 0 0 1-.65576.042 2.98625 2.98625 0 0 1-.5708-.04883.9548.9548 0 0 1-.4087-.17675.78126.78126 0 0 1-.24707-.35254 1.72414 1.72414 0 0 1-.08447-.5918V30.47029a.61944.61944 0 0 1 .16211-.459 1.17047 1.17047 0 0 1 .44434-.26074 5.32073 5.32073 0 0 1 1.11377-.24609 11.15305 11.15305 0 0 1 1.35351-.07813 4.50544 4.50544 0 0 1 2.93262.81836 2.72287 2.72287 0 0 1 .98682 2.21289 2.47428 2.47428 0 0 1-.45118 1.49512 3.24493 3.24493 0 0 1-1.07129.959q.50757.68994 1.001 1.29688a8.34228 8.34228 0 0 1 .77539 1.09961 1.32854 1.32854 0 0 1-.51465.7539 1.43247 1.43247 0 0 1-.83886.26172 1.80359 1.80359 0 0 1-.53565-.07129 1.28585 1.28585 0 0 1-.395-.19726 1.59064 1.59064 0 0 1-.31006-.30957 4.08485 4.08485 0 0 1-.26806-.39551l-1.18409-1.90332Zm.88818-1.875a1.22933 1.22933 0 0 0 .84619-.27539 1.02564 1.02564 0 0 0 .31006-.81055.97577.97577 0 0 0-.34522-.81055A1.75114 1.75114 0 0 0 66.517 31.4a3.08812 3.08812 0 0 0-.33838.01465c-.08447.00977-.17871.02344-.28222.042v2.11524ZM72.04388 30.97712a1.217 1.217 0 0 1 1.311-1.31055h4.65283a1.68523 1.68523 0 0 1 .17627.40821 1.82982 1.82982 0 0 1 .07764.53613 1.03382 1.03382 0 0 1-.23242.76172.84443.84443 0 0 1-.61328.22559h-2.9751v1.31054h3.17236a1.74119 1.74119 0 0 1 .17627.40235 1.76515 1.76515 0 0 1 .07764.52832 1.05581 1.05581 0 0 1-.22559.76172.82027.82027 0 0 1-.60644.22558H74.44085V36.3072h3.62353a1.69632 1.69632 0 0 1 .17627.40918 1.83484 1.83484 0 0 1 .07764.53516 1.05777 1.05777 0 0 1-.23291.76855.82757.82757 0 0 1-.61328.23242H73.35491a1.217 1.217 0 0 1-1.311-1.31054ZM81.77239 29.92048a2.9641 2.9641 0 0 1 .72608-.26855 3.89423 3.89423 0 0 1 .98-.127 3.51591 3.51591 0 0 1 1.24756.20508 1.0844 1.0844 0 0 1 .69824.6416q.25341.73242.5498 1.70606.2959.97266.59229 2.00879.29589 1.03565.57812 2.04394.28125 1.00927.49317 1.78418a1.16235 1.16235 0 0 1-.50733.31738 2.43406 2.43406 0 0 1-.80371.11915 2.49952 2.49952 0 0 1-.57129-.05567 1.00973 1.00973 0 0 1-.38037-.16992.8338.8338 0 0 1-.23974-.2959 2.50073 2.50073 0 0 1-.16211-.42285l-.25391-.97266H82.16692q-.11279.42334-.22558.874-.1128.45117-.22559.874a3.65882 3.65882 0 0 1-.41553.12012 2.48752 2.48752 0 0 1-.5288.04883 1.84686 1.84686 0 0 1-1.06446-.2461.79481.79481 0 0 1-.3457-.68457 1.41654 1.41654 0 0 1 .05664-.39453q.05567-.19629.12695-.46484.09815-.38086.27491-.94532c.11718-.375.24658-.78222.38769-1.21875q.21095-.65625.45117-1.34668.23951-.69139.45117-1.30468.21168-.61232.3877-1.09278Q81.67328 30.17391 81.77239 29.92048Zm1.6919 1.81836q-.19776.5918-.44434 1.31836-.24682.72655-.44385 1.47363h1.74805q-.197-.76172-.40186-1.4873-.20434-.72657-.37353-1.30469ZM87.90569 31.64021a1.85136 1.85136 0 0 1-.1831-.42285 1.87379 1.87379 0 0 1-.08447-.56446 1.06622 1.06622 0 0 1 .24658-.78906.881.881 0 0 1 .6416-.24023h6.14746a1.98866 1.98866 0 0 1 .26758.9873 1.06469 1.06469 0 0 1-.24658.78906.881.881 0 0 1-.64161.24024H92.48821v6.51367a3.90833 3.90833 0 0 1-.48633.085 5.15438 5.15438 0 0 1-.65576.042 2.98625 2.98625 0 0 1-.5708-.04883 1.014 1.014 0 0 1-.416-.17675.76056.76056 0 0 1-.25391-.35254 1.72414 1.72414 0 0 1-.08447-.5918v-5.4707ZM103.78216 38.15388a3.92074 3.92074 0 0 1-.48682.085 5.14677 5.14677 0 0 1-.65527.042 2.99529 2.99529 0 0 1-.57129-.04883 1.01409 1.01409 0 0 1-.416-.17675.7564.7564 0 0 1-.25341-.35254 1.711 1.711 0 0 1-.085-.5918V34.91169h-2.707v3.24219a3.90845 3.90845 0 0 1-.48632.085 5.15465 5.15465 0 0 1-.65577.042 2.9864 2.9864 0 0 1-.5708-.04883 1.014 1.014 0 0 1-.416-.17675.76056.76056 0 0 1-.25391-.35254 1.72414 1.72414 0 0 1-.08447-.5918V29.66657c.10351-.01953.26806-.04492.49365-.07812a4.58763 4.58763 0 0 1 .64844-.04883 2.99354 2.99354 0 0 1 .5708.04883 1.014 1.014 0 0 1 .416.17676.76051.76051 0 0 1 .25391.35254 1.72408 1.72408 0 0 1 .08447.59179V32.9654h2.707V29.66657c.10352-.01953.26807-.04492.49366-.07812a4.59275 4.59275 0 0 1 .64843-.04883 2.99529 2.99529 0 0 1 .57129.04883 1.01685 1.01685 0 0 1 .416.17676.75643.75643 0 0 1 .25342.35254 1.711 1.711 0 0 1 .085.59179ZM105.61468 30.97712a1.217 1.217 0 0 1 1.311-1.31055h4.65283a1.68523 1.68523 0 0 1 .17627.40821 1.82982 1.82982 0 0 1 .07764.53613 1.03382 1.03382 0 0 1-.23242.76172.84443.84443 0 0 1-.61328.22559h-2.9751v1.31054H111.184a1.74077 1.74077 0 0 1 .17627.40235 1.76515 1.76515 0 0 1 .07764.52832 1.05581 1.05581 0 0 1-.22559.76172.82026.82026 0 0 1-.60644.22558h-2.59424V36.3072h3.62354a1.69671 1.69671 0 0 1 .17627.40918 1.83517 1.83517 0 0 1 .07763.53516 1.05773 1.05773 0 0 1-.23291.76855.82757.82757 0 0 1-.61328.23242h-4.11719a1.217 1.217 0 0 1-1.311-1.31054ZM71.40179 48.56013a1.85132 1.85132 0 0 1-.18311-.42285 1.87379 1.87379 0 0 1-.08447-.56446 1.06622 1.06622 0 0 1 .24658-.78906.88106.88106 0 0 1 .6416-.24023h6.14746a1.98866 1.98866 0 0 1 .26758.9873 1.06471 1.06471 0 0 1-.24658.78907.88106.88106 0 0 1-.6416.24023H75.98431V55.0738a3.909 3.909 0 0 1-.48633.085 5.15438 5.15438 0 0 1-.65576.042 2.98712 2.98712 0 0 1-.5708-.04882 1.01418 1.01418 0 0 1-.416-.17676.76063.76063 0 0 1-.25391-.35254 1.72414 1.72414 0 0 1-.08447-.5918v-5.4707ZM78.8471 50.84431a5.11577 5.11577 0 0 1 .34521-1.94629 3.91911 3.91911 0 0 1 2.3545-2.2832 5.338 5.338 0 0 1 3.51074 0 4.09023 4.09023 0 0 1 1.417.86621 3.99087 3.99087 0 0 1 .95215 1.417 5.125 5.125 0 0 1 .34521 1.94629 5.26888 5.26888 0 0 1-.33837 1.95312 3.94545 3.94545 0 0 1-.9375 1.42383 4.00333 4.00333 0 0 1-1.417.86719 5.18684 5.18684 0 0 1-1.77685.2959 5.06932 5.06932 0 0 1-1.77637-.30371 3.94467 3.94467 0 0 1-1.41016-.88086 4.07344 4.07344 0 0 1-.93017-1.42383A5.17093 5.17093 0 0 1 78.8471 50.84431Zm2.5376 0a2.96923 2.96923 0 0 0 .522 1.917 1.86747 1.86747 0 0 0 2.80566 0 3.78051 3.78051 0 0 0 .00684-3.82031 1.71029 1.71029 0 0 0-1.40283-.63477 1.74114 1.74114 0 0 0-1.40283.62793A2.91264 2.91264 0 0 0 81.3847 50.84431ZM88.75872 50.84431a5.11558 5.11558 0 0 1 .34522-1.94629 3.91906 3.91906 0 0 1 2.35449-2.2832 5.338 5.338 0 0 1 3.51074 0 4.09023 4.09023 0 0 1 1.417.86621 3.99087 3.99087 0 0 1 .95215 1.417 5.125 5.125 0 0 1 .34522 1.94629 5.26888 5.26888 0 0 1-.33838 1.95312 3.94545 3.94545 0 0 1-.9375 1.42383 4.00333 4.00333 0 0 1-1.417.86719 5.18684 5.18684 0 0 1-1.77685.2959 5.06932 5.06932 0 0 1-1.77637-.30371 3.94455 3.94455 0 0 1-1.41015-.88086A4.07346 4.07346 0 0 1 89.0971 52.776 5.17093 5.17093 0 0 1 88.75872 50.84431Zm2.5376 0a2.96923 2.96923 0 0 0 .522 1.917 1.86748 1.86748 0 0 0 2.80567 0 3.78054 3.78054 0 0 0 .00683-3.82031 1.71029 1.71029 0 0 0-1.40283-.63477 1.74115 1.74115 0 0 0-1.40283.62793A2.91264 2.91264 0 0 0 91.29632 50.84431Z"></path>
      <path fill="#fed4c0" d="M129.4868,31.1307V44.57064a1.79668,1.79668,0,0,0,1.76,1.7998l5.12.11036,2.67-5.0503a7.43723,7.43723,0,0,0-.77-8.13965l-.42-.53027a9.0197,9.0197,0,0,0-2.85-2.37012,9.30223,9.30223,0,0,0-3.56-1.0498A1.7975,1.7975,0,0,0,129.4868,31.1307Z"></path>
      <path fill="#200100" d="M129.4868 33.41048V34.5306h4.38a.56006.56006 0 0 0 0-1.12012ZM129.4868 36.41048V37.5306h4.38a.56006.56006 0 0 0 0-1.12012ZM129.4868 39.41048V40.5306h4.38a.56006.56006 0 0 0 0-1.12012ZM129.4868 42.41048V43.5306h4.38a.56006.56006 0 0 0 0-1.12012Z"></path>
      <path fill="#fed4c0" d="M39.90351,31.1307V44.57064a1.79668,1.79668,0,0,1-1.76,1.7998l-5.12.11036-2.67-5.0503a7.43725,7.43725,0,0,1,.77-8.13965l.42-.53027a9.01955,9.01955,0,0,1,2.85-2.37012,9.30223,9.30223,0,0,1,3.56-1.0498A1.79749,1.79749,0,0,1,39.90351,31.1307Z"></path>
      <path fill="#200100" d="M39.90351 33.41048V34.5306h-4.38a.56006.56006 0 0 1 0-1.12012ZM39.90351 36.41048V37.5306h-4.38a.56006.56006 0 0 1 0-1.12012ZM39.90351 39.41048V40.5306h-4.38a.56006.56006 0 0 1 0-1.12012ZM39.90351 42.41048V43.5306h-4.38a.56006.56006 0 0 1 0-1.12012Z"></path>
      <polygon fill="#efbfac" points="132.64 46.4 135.483 46.4 132.64 51.812 132.64 46.4"></polygon>
      <polygon fill="#efbfac" points="36.417 46.481 33.983 46.481 36.417 51.812 36.417 46.481"></polygon>
      <path fill="#560d0d" d="M322.71966,101.46443a3.89407,3.89407,0,0,1-2.25195-.916l.65576-.75488a2.57444,2.57444,0,0,0,1.85254.64551,1.72549,1.72549,0,0,0,1.12255-1.06055l.89844.4375a2.6533,2.6533,0,0,1-1.82519,1.60351A2.24639,2.24639,0,0,1,322.71966,101.46443Z"></path>
      <circle cx="303.987" cy="95.945" r="7.357" fill="#200100"></circle>
      <circle cx="337.056" cy="99.283" r="7.357" fill="#200100"></circle>
      <path fill="#773f2f" d="M274.77148,236.46832l-2.11665,15.7245a5.72543,5.72543,0,0,0,1.55825,4.709l6.27658,6.66242a1.7558,1.7558,0,0,0,1.37014.52652h0a1.61311,1.61311,0,0,0,1.60433-1.61372h0a3.37825,3.37825,0,0,0-.95444-2.1595l-4.8095-5.01821s.21383-7.22156.40372-6.15013l2.53212,3.337a1.30032,1.30032,0,0,0,2.07452-.08522h0a1.02459,1.02459,0,0,0,.16954-.67231,5.46632,5.46632,0,0,0-.92277-2.42712l-.71126-1.04056s1.03057-8.10619-1.04141-12.08174Z"></path>
      <polygon fill="#773f2f" points="278.125 184.553 273.841 243.905 281.109 240.634 290.37 189.911 278.125 184.553"></polygon>
      <path fill="#773f2f" d="M359.67808,370.29585l2.06451,12.02955,14.85328,10.98s-17.46,6.3-26.28-3.06l1.8-8.28-4.14-10.62Z"></path>
      <path fill="#2c66bf" d="M382.35587,399.4254s-19.62.36808-24.3-4.046v4.05348h-8.64s-2.7143-14.44976,1.88285-13.70864,20.96171,13.235,21.32943,4.64806l6.41992,3.3045a6.09908,6.09908,0,0,1,3.3078,5.42286Z"></path>
      <path fill="#773f2f" d="M290.65365,370.29585l-.06451,12.02955-14.85327,10.98s17.46,6.3,26.28-3.06l-1.8-8.28,2.14-10.62Z"></path>
      <path fill="#2c66bf" d="M269.97587,399.4254s19.62.36808,24.3-4.046v4.05348h8.64s2.71429-14.44976-1.88286-13.70864-20.96171,13.235-21.32943,4.64806l-6.41992,3.3045a6.09907,6.09907,0,0,0-3.30779,5.42286Z"></path>
      <path fill="#4285f4" d="M324.45583,196.86538l7.27524,13.025a86.24824,86.24824,0,0,1,9.96037,29.031l20.59443,134.61H345.773l-32.80711-144.266h-1.42666l-5.56334,142.08h-17.76l-4.664-127.57568a75.72886,75.72886,0,0,1,6.30623-33.6619,52.69854,52.69854,0,0,1,8.19779-13.24244Z"></path>
      <rect width=".999" height="11.737" x="312.196" y="223.202" fill="#200100" transform="rotate(-85.452 312.696 229.07)"></rect>
      <rect width="16.764" height="1" x="285.853" y="215.802" fill="#200100" transform="rotate(-73.086 294.235 216.302)"></rect>
      <path fill="#773f2f" d="M303.81588,113.10537c.01861,0,.03576.00586.05432.0061.55249-9.59534,6.80975-17.16614,14.46563-17.16614s13.91321,7.5708,14.4657,17.16614c.01856-.00024.03571-.0061.05432-.0061a4.70742,4.70742,0,0,1,0,9.36,3.77571,3.77571,0,0,1-1.33008-.26233c-.92772,5.885-2.60772,9.485-8.87368,11.81191l-.11624,10.05052-.72,8.7-11.94-1.14.42-7.55994,1.04878-10.85116c-4.86659-1.52628-6.21869-8.85892-6.19869-11.01127a3.77534,3.77534,0,0,1-1.33007.26233,4.70742,4.70742,0,0,1,0-9.36Z"></path>
      <path fill="#200100" d="M321.13029 134.83462a6.65006 6.65006 0 0 1-2.071.69434 9.08079 9.08079 0 0 1-2.19166.11523 7.59529 7.59529 0 0 1-2.16021-.51123 4.69882 4.69882 0 0 1-1.79162-1.2915 19.40112 19.40112 0 0 0 2.0216.5459c.66982.1123 1.33341.20947 2.0102.26074C318.30493 134.758 319.66946 134.75161 321.13029 134.83462ZM319.41586 115.02554a7.66726 7.66726 0 0 1 .91879 2.00391 7.54234 7.54234 0 0 1 .35957 2.21533 3.67332 3.67332 0 0 1-.20585 1.21 1.48555 1.48555 0 0 1-1.066.96045 1.84358 1.84358 0 0 1-1.23287-.27735 3.6725 3.6725 0 0 1-.87362-.7124 3.71788 3.71788 0 0 0 1.91194.23389c.35338-.14844.47439-.76563.46707-1.42676a20.0064 20.0064 0 0 0-.12236-2.0498C319.50611 116.48062 319.43365 115.76968 319.41586 115.02554ZM330.01035 109.8997s-4.39726-2.14206-7.00985 2.00659M316.0385 111.67508s-1.85208-4.527-6.56438-3.17386M313.77671 124.04829s6.91726-3.0792 7.68592 5.35841"></path>
      <ellipse cx="324.876" cy="115.775" fill="#200100" rx="1.02" ry="1.53"></ellipse>
      <ellipse cx="313.236" cy="115.355" fill="#200100" rx="1.02" ry="1.53"></ellipse>
      <path fill="#200100" d="M301.13586 118.50552a2.0372 2.0372 0 0 1 .29916-1.21094 2.134 2.134 0 0 1 .99657-.8916 1.72146 1.72146 0 0 1 1.39481.01953 1.78934 1.78934 0 0 1 .90947.88281c-.43465-.04541-.78255-.13085-1.10213-.12646a1.73775 1.73775 0 0 0-.82193.14844A8.09024 8.09024 0 0 0 301.13586 118.50552ZM335.73587 118.50552a8.09 8.09 0 0 0-1.67594-1.17822 1.73786 1.73786 0 0 0-.82194-.14844c-.31958-.00439-.66747.08105-1.10213.12646a1.78932 1.78932 0 0 1 .90948-.88281 1.72142 1.72142 0 0 1 1.39479-.01953 2.13408 2.13408 0 0 1 .99659.8916A2.03733 2.03733 0 0 1 335.73587 118.50552Z"></path>
      <path fill="#df382b" d="M298.05582,196.86537l-5.83142-20.03894-2.12427,17.219H277.10337l2.4245-31.66992a16.74121,16.74121,0,0,1,7.97064-13.00843,31.87924,31.87924,0,0,1,8.5451-3.65,61.16635,61.16635,0,0,1,14.2522-1.65161s5.04,13.91992,12.24,0l9.93469,3.34741a21.9566,21.9566,0,0,1,12.99036,11.74988l10.73566,17.66369v20.835l-22.9936-20.36767-8.74713,19.57165,7.27527,13.025a86.247,86.247,0,0,1,9.96039,29.031L349.2009,288.005l-63.96249,1.89762-1.68656-46.13282a75.72858,75.72858,0,0,1,6.30622-33.662A52.70166,52.70166,0,0,1,298.05582,196.86537Z"></path>
      <path fill="#b7251d" d="M338.61587 166.3854a33.14714 33.14714 0 0 1-2.25883 5.67627 32.75179 32.75179 0 0 1-3.15407 5.23194 32.7678 32.7678 0 0 1 2.25882-5.67627A33.127 33.127 0 0 1 338.61587 166.3854ZM292.22445 176.82632a47.92224 47.92224 0 0 1-2.60258-6.87549 47.369 47.369 0 0 1-1.646-7.16552 47.3734 47.3734 0 0 1 2.60257 6.876A47.90245 47.90245 0 0 1 292.22445 176.82632Z"></path>
      <path fill="#200100" d="M329.21805,105.30384c-4.34218-.18-3.46549-3.3663-3.87-6.02072,0,0-2.91,5.81072-7.72838,0-1.09715-1.32311-.96972,8.21072-6.58162,1.25072-.869-1.07771-1.78683,1.746-3.08942,3.963-.78156,1.33018-1.70162,2.44192-2.83272,2.36145l-.38,8.49715S293.71345,93.93378,320.1964,91.17384a15.0426,15.0426,0,0,1,8.24165,1.68c12.63866,7.42212,7.72929,19.92,2.61782,25.19525C331.05587,118.04909,334.1079,105.50655,329.21805,105.30384Z"></path>
      <path fill="#200100" d="M321.22453,92.16384l2.25-2.79s4.95.81,2.16-1.17-3.42-.54-3.42,0Z"></path>
      <rect width="8.547" height="8.547" x="306.819" y="192.084" fill="#b7251d" transform="rotate(-45 311.092 196.358)"></rect>
      <path fill="#b7251d" d="M301.48 198.27a1.5009 1.5009 0 0 0 0-3 1.5009 1.5009 0 0 0 0 3ZM320.92 198.03a1.5009 1.5009 0 0 0 0-3 1.5009 1.5009 0 0 0 0 3ZM311.11 188.04a1.5009 1.5009 0 0 0 0-3 1.5009 1.5009 0 0 0 0 3ZM311.29 207.3a1.5009 1.5009 0 0 0 0-3 1.5009 1.5009 0 0 0 0 3ZM344.98224 283.4821a1.5009 1.5009 0 0 0 0-3 1.5009 1.5009 0 0 0 0 3ZM343.35237 274.15329a1.5009 1.5009 0 0 0 0-3 1.5009 1.5009 0 0 0 0 3ZM341.72738 265.06443a1.5009 1.5009 0 0 0 0-3 1.5009 1.5009 0 0 0 0 3ZM339.59322 254.54562a1.5009 1.5009 0 0 0 0-3 1.5009 1.5009 0 0 0 0 3ZM335.88363 284.6272a1.5009 1.5009 0 0 0 0-3 1.5009 1.5009 0 0 0 0 3ZM327.00546 284.80761a1.5009 1.5009 0 0 0 0-3 1.5009 1.5009 0 0 0 0 3ZM317.17237 285.24748a1.5009 1.5009 0 0 0 0-3 1.5009 1.5009 0 0 0 0 3ZM307.34415 285.9273a1.5009 1.5009 0 0 0 0-3 1.5009 1.5009 0 0 0 0 3ZM297.04091 286.85683a1.5009 1.5009 0 0 0 0-3 1.5009 1.5009 0 0 0 0 3ZM288.40757 287.27232a1.5009 1.5009 0 0 0 0-3 1.5009 1.5009 0 0 0 0 3ZM287.76188 279.12376a1.5009 1.5009 0 0 0 0-3 1.5009 1.5009 0 0 0 0 3ZM287.09669 270.01539a1.5009 1.5009 0 0 0 0-3 1.5009 1.5009 0 0 0 0 3ZM287.13184 259.9326a1.5009 1.5009 0 0 0 0-3 1.5009 1.5009 0 0 0 0 3ZM290.44 368.55a1.5009 1.5009 0 0 0 0-3 1.5009 1.5009 0 0 0 0 3ZM297.16 368.55a1.5009 1.5009 0 0 0 0-3 1.5009 1.5009 0 0 0 0 3ZM303.4 368.79a1.5009 1.5009 0 0 0 0-3 1.5009 1.5009 0 0 0 0 3ZM347.32 371.43a1.5009 1.5009 0 0 0 0-3 1.5009 1.5009 0 0 0 0 3ZM353.8 371.67a1.5009 1.5009 0 0 0 0-3 1.5009 1.5009 0 0 0 0 3ZM359.32 372.15a1.5009 1.5009 0 0 0 0-3 1.5009 1.5009 0 0 0 0 3ZM279.64 193.11a1.5009 1.5009 0 0 0 0-3 1.5009 1.5009 0 0 0 0 3ZM283.48 193.11a1.5009 1.5009 0 0 0 0-3 1.5009 1.5009 0 0 0 0 3ZM287.56 193.11a1.5009 1.5009 0 0 0 0-3 1.5009 1.5009 0 0 0 0 3ZM352.84 192.87a1.5009 1.5009 0 0 0 0-3 1.5009 1.5009 0 0 0 0 3ZM352.36 185.43a1.5009 1.5009 0 0 0 0-3 1.5009 1.5009 0 0 0 0 3ZM353.08 177.27a1.5009 1.5009 0 0 0 0-3 1.5009 1.5009 0 0 0 0 3Z"></path>
      <path fill="#eda606" d="m322.57817 140.55777 1.56318 1.25341a.064.064 0 0 1 .00988.08985.06318.06318 0 0 1-.08974.00976l-.003-.00244-.00772-.00683ZM325.4875 143.30728l1.12457 1.67529a.16258.16258 0 1 1-.27.18115l-.00384-.00586-.0113-.01855-1.02467-1.6958-.00806-.01319a.1146.1146 0 0 1 .19332-.123ZM327.51661 146.79214l.68263 1.9043a.25474.25474 0 0 1-.47961.17187l-.00331-.00976-.00873-.02832-.58147-1.88233-.00717-.023a.20968.20968 0 0 1 .39766-.13281ZM328.65283 150.67251l.24249 2.01612a.31276.31276 0 0 1-.62105.0747l-.00082-.00781-.00305-.0332-.17821-1.96094-.0027-.0293a.28327.28327 0 0 1 .56334-.05957ZM328.93116 154.71939c-.043.67773-.11183 1.35449-.16757 2.03271a.37085.37085 0 1 1-.73923-.06054l.00077-.00831.00433-.03955c.07129-.65136.1572-1.30224.21848-1.95605l.002-.022a.3417.3417 0 0 1 .6812.05371ZM328.38929 158.76236l-.5899 1.96142a.424.424 0 1 1-.812-.24414l.00242-.00781.01488-.04541.60934-1.86279.01339-.04053a.39933.39933 0 0 1 .76191.23926ZM326.982 162.60611l-1.03379 1.77734a.44284.44284 0 1 1-.76558-.44531l.00213-.00391.02776-.04639.99641-1.67578.02658-.04492a.433.433 0 0 1 .74649.439ZM324.69567 166.02066l-1.471 1.45361a.46165.46165 0 1 1-.649-.65674l.00311-.00342.04906-.04736 1.38922-1.34668.04655-.04541a.4519.4519 0 0 1 .63208.646ZM321.54158 168.69009a11.55931 11.55931 0 0 1-1.87269.915.4821.4821 0 0 1-.34237-.90137l.00456-.00195a10.5645 10.5645 0 0 0 1.726-.82275.47238.47238 0 0 1 .48453.811ZM317.64935 170.154a10.105 10.105 0 0 1-2.09194.13379.499.499 0 0 1 .04108-.99707 9.629 9.629 0 0 0 1.89246-.10694.49153.49153 0 0 1 .1584.97022ZM313.48423 169.98013a10.58256 10.58256 0 0 1-1.9648-.71387.47936.47936 0 0 1 .40984-.8667 9.6119 9.6119 0 0 0 1.79147.63135.489.489 0 1 1-.23153.9502ZM309.7328 168.1979l-1.56949-1.356a.45838.45838 0 0 1 .59576-.69678l.0569.04834 1.46586 1.24219.05981.05078a.46821.46821 0 0 1-.60545.71435ZM306.82852 165.26577l-1.09813-1.74072a.43969.43969 0 0 1 .74124-.47314l.03145.04883 1.05061 1.63085.03288.05127a.44948.44948 0 0 1-.75573.48682ZM304.86479 161.66324l-.637-1.94239a.41948.41948 0 0 1 .79562-.26611l.01537.04541.62663 1.84375.01592.04687a.43042.43042 0 0 1-.8151.27686ZM303.82832 157.71792l-.18518-2.03027a.361.361 0 0 1 .71783-.07666l.00456.0376.23507 1.94677.00486.04a.39079.39079 0 1 1-.77594.09375ZM303.66578 153.65445c.06259-.67579.15055-1.34864.22522-2.022a.3026.3026 0 0 1 .60242.05713l-.00253.03174c-.05242.65576-.11882 1.30957-.16091 1.96436l-.00134.021a.33247.33247 0 1 1-.66359-.04248ZM304.32014 149.64566l.63846-1.92774a.24077.24077 0 0 1 .45956.14356l-.00757.02588-.55964 1.894-.00826.02783a.27384.27384 0 1 1-.52521-.15527ZM305.818 145.882l1.06555-1.71875a.14506.14506 0 0 1 .25033.14648l-.00887.01611-.96236 1.73194-.01118.02a.19332.19332 0 0 1-.33814-.1875ZM308.15367 142.59585l1.47572-1.36621a.04.04 0 0 1 .05591.05713l-.0042.00439L308.3 142.72525l-.00965.00976a.09756.09756 0 0 1-.14065-.13525ZM302.808 133.5572c-1.40674 0-2.04737-3.64941-2.04737-7.041s.64063-7.041 2.04737-7.041c1.40625 0 2.04687 3.64941 2.04687 7.041S304.21429 133.5572 302.808 133.5572Zm0-13.332c-.38819 0-1.29737 2.14062-1.29737 6.291s.90918 6.291 1.29737 6.291c.38769 0 1.29687-2.14063 1.29687-6.291S303.19573 120.22517 302.808 120.22517Z"></path>
      <path fill="#773f2f" d="M302.93587,118.635v2.97s-.559,1.42112,2.21008.59806S302.93587,118.635,302.93587,118.635Z"></path>
      <path fill="#eda606" d="M334.31194,133.5572c-1.40625,0-2.04687-3.64941-2.04687-7.041s.64062-7.041,2.04687-7.041c1.40674,0,2.04737,3.64941,2.04737,7.041S335.71868,133.5572,334.31194,133.5572Zm0-13.332c-.38769,0-1.29687,2.14062-1.29687,6.291s.90918,6.291,1.29687,6.291c.38819,0,1.29737-2.14063,1.29737-6.291S334.70013,120.22517,334.31194,120.22517Z"></path>
      <path fill="#773f2f" d="M334.675,118.875l-.83645,2.72425s.596,1.406-2.19369.65568S334.675,118.875,334.675,118.875Z"></path>
      <path fill="#5e2f2f" d="M310.3477 120.57334a.75045.75045 0 0 0 0-1.5.75045.75045 0 0 0 0 1.5ZM312.6877 122.10334a.75045.75045 0 0 0 0-1.5.75045.75045 0 0 0 0 1.5ZM310.1227 123.72334a.75045.75045 0 0 0 0-1.5.75045.75045 0 0 0 0 1.5ZM327.03923 122.18457a.75045.75045 0 0 0 0-1.5.75045.75045 0 0 0 0 1.5ZM325.37527 124.43128a.75045.75045 0 0 0 0-1.5.75045.75045 0 0 0 0 1.5ZM323.90773 121.77611a.75045.75045 0 0 0 0-1.5.75045.75045 0 0 0 0 1.5Z"></path>
      <path fill="#8c4d3e" d="M362.78325,139.405l8.50056,3.20089-.98352,3.00458-.37123,45.50669a8.41617,8.41617,0,0,1-13.93636,6.3408h0a37.28637,37.28637,0,0,1-1.26531-21.49651Z"></path>
      <path fill="#8c4d3e" d="M362.88469,139.76858a105.45393,105.45393,0,0,1-2.84544-17.20913l.02057-.06842h0a2.5468,2.5468,0,0,1,.85806-1.28694,1.60371,1.60371,0,0,1,2.40913.21827,2.61945,2.61945,0,0,1,.65147,1.481l.33676,2.94476s8.97724-1.79845,12.28708,3.15981a5.52859,5.52859,0,0,1,.88486,3.36142h0c-1.37142,5.7076-6.73472,10.76989-6.73472,10.76989Z"></path>
      <polygon fill="#3f3838" points="355.968 87.539 374.368 170.647 381.674 168.91 364.079 85.969 355.968 87.539"></polygon>
      <rect width="78.735" height="48.681" x="354.486" y="55.297" fill="#f4f4f4" transform="rotate(-11.315 393.853 79.638)"></rect>
      <path fill="#df382b" d="M365.765 73.32321a2.7658 2.7658 0 0 1 .612-.37655 3.56907 3.56907 0 0 1 .86866-.29326 3.26507 3.26507 0 0 1 1.17209-.04124 1.00834 1.00834 0 0 1 .75158.45661q.36526.62079.8118 1.45226.44643.83094.90455 1.72036.458.8889.89849 1.75524.4386.86509.7736 1.53265a1.07477 1.07477 0 0 1-.40486.38072 2.22335 2.22335 0 0 1-.70891.25586 2.33313 2.33313 0 0 1-.53019.05288.9424.9424 0 0 1-.37755-.08516.75868.75868 0 0 1-.27106-.22592 2.29914 2.29914 0 0 1-.22514-.35455l-.4079-.8392-2.322.46462c-.01772.26959-.03253.54836-.04649.83674-.01313.28712-.029.56611-.04565.83548a3.4133 3.4133 0 0 1-.35707.18547 2.30373 2.30373 0 0 1-.47233.1412 1.71166 1.71166 0 0 1-1.01277-.03081.73536.73536 0 0 1-.43878-.55939 1.31815 1.31815 0 0 1-.0207-.36939c.00938-.12676.01981-.27544.03-.44688.01438-.24285.03962-.54543.07864-.9094q.057-.54565.13082-1.18046.07323-.63524.16526-1.3068.09172-.67314.17279-1.26921c.054-.39739.10559-.753.154-1.06457C365.69715 73.7277 365.73514 73.48881 365.765 73.32321Zm1.87009 1.34692q-.07074.57446-.164 1.28048-.09171.70571-.13581 1.42144l1.59117-.31839q-.31893-.65773-.63639-1.281-.3183-.622-.57769-1.118ZM374.86519 79.38791a1.12884 1.12884 0 0 1-1.43216-.95458l-1.32723-6.633c.09063-.0355.23512-.08939.435-.15978a4.11557 4.11557 0 0 1 .58091-.16293 2.71 2.71 0 0 1 .52893-.05915.92548.92548 0 0 1 .40992.08412.70143.70143 0 0 1 .29488.27436 1.58031 1.58031 0 0 1 .18506.52328l1.01406 5.06792 2.938-.58789a1.71659 1.71659 0 0 1 .24289.34558 1.62363 1.62363 0 0 1 .17608.47838 1.005 1.005 0 0 1-.07323.76825.8123.8123 0 0 1-.535.32747ZM381.446 78.07114a1.12885 1.12885 0 0 1-1.43216-.95459l-1.32722-6.633c.09062-.03551.23512-.0894.435-.15979a4.11665 4.11665 0 0 1 .58092-.16293 2.709 2.709 0 0 1 .52893-.05914.92544.92544 0 0 1 .40991.08411.70143.70143 0 0 1 .29488.27436 1.58031 1.58031 0 0 1 .18506.52328l1.01406 5.06792 2.938-.58788a1.71608 1.71608 0 0 1 .24289.34557 1.62328 1.62328 0 0 1 .17608.47838 1.005 1.005 0 0 1-.07323.76825.81232.81232 0 0 1-.535.32748ZM390.59306 76.24085a1.12885 1.12885 0 0 1-1.43216-.95458l-1.32723-6.633c.09063-.03551.23512-.0894.435-.15979a4.11788 4.11788 0 0 1 .58091-.16293 2.7107 2.7107 0 0 1 .52893-.05914.92548.92548 0 0 1 .40992.08412.70128.70128 0 0 1 .29487.27436 1.58 1.58 0 0 1 .18506.52328l1.01407 5.06791 2.938-.58788a1.71717 1.71717 0 0 1 .24289.34557 1.6235 1.6235 0 0 1 .17607.47839 1.005 1.005 0 0 1-.07322.76824.81231.81231 0 0 1-.535.32748ZM398.20828 74.6237a3.81121 3.81121 0 0 1-.42722.16584 4.90509 4.90509 0 0 1-.58865.15687 2.69447 2.69447 0 0 1-.52893.05915.92544.92544 0 0 1-.40991-.08412.71063.71063 0 0 1-.29592-.27415 1.60028 1.60028 0 0 1-.184-.52349l-1.35563-6.775c.09062-.03551.23533-.08835.435-.15978a4.11531 4.11531 0 0 1 .58092-.16293 2.70984 2.70984 0 0 1 .52893-.05915.954.954 0 0 1 .40991.08412.70467.70467 0 0 1 .29509.2754 1.57227 1.57227 0 0 1 .18506.52328ZM404.4921 73.15242a1.58515 1.58515 0 0 1-.50363.38093 2.87461 2.87461 0 0 1-.80476.28156 2.43462 2.43462 0 0 1-.95617.0241.98492.98492 0 0 1-.61375-.3376q-.20144-.26591-.49935-.69386-.29884-.42722-.63927-.959-.3396-.53308-.70675-1.1334-.36747-.59916-.71823-1.22339-.35275-.62329-.67334-1.227-.31923-.60229-.57436-1.13925a1.71 1.71 0 0 1 .45456-.43084 1.838 1.838 0 0 1 .69513-.2922 1.40942 1.40942 0 0 1 .81544.04315 1.22986 1.22986 0 0 1 .59038.64958q.59775 1.18833 1.18087 2.26557.58206 1.07745 1.21573 2.24447l.07726-.01546q.10482-1.27515.1858-2.77249.08162-1.49693.13233-2.97462a2.96563 2.96563 0 0 1 .4552-.292 2.17089 2.17089 0 0 1 .58091-.19551 1.50808 1.50808 0 0 1 .85031.04921.78176.78176 0 0 1 .47408.63267 3.76911 3.76911 0 0 1 .02952.84759q-.02658.56725-.10388 1.28257-.07666.71572-.193 1.49912-.11676.784-.25024 1.48451-.13336.701-.26529 1.241A4.6936 4.6936 0 0 1 404.4921 73.15242ZM406.70326 66.13177a1.13023 1.13023 0 0 1 .95459-1.43216l4.2337-.84714a1.59227 1.59227 0 0 1 .23432.34076 1.69125 1.69125 0 0 1 .16856.47338.95713.95713 0 0 1-.07343.73463.783.783 0 0 1-.51743.31745l-2.70622.5415.23878 1.19337 2.88581-.57743a1.55656 1.55656 0 0 1 .23391.33325 1.62819 1.62819 0 0 1 .1673.46711.97619.97619 0 0 1-.06717.73337.76.76 0 0 1-.51011.316l-2.36064.47235.26949 1.34685 3.29718-.65974a1.58224 1.58224 0 0 1 .23411.33972 1.70193 1.70193 0 0 1 .16856.47337.98229.98229 0 0 1-.072.74194.76908.76908 0 0 1-.51513.32351l-3.74612.74958a1.12885 1.12885 0 0 1-1.43216-.95459ZM416.70223 67.7611q-.60234-.07983-1.10466-.18617a3.22019 3.22019 0 0 1-.89189-.32212 2.01827 2.01827 0 0 1-.65365-.5696 2.25662 2.25662 0 0 1-.37721-.91918 2.14259 2.14259 0 0 1 .49034-1.91261 3.82627 3.82627 0 0 1 2.2236-1.12468 6.57152 6.57152 0 0 1 1.04157-.12915 3.10881 3.10881 0 0 1 .863.07489 1.44191 1.44191 0 0 1 .61458.30377.95431.95431 0 0 1 .30889.5452 1.04253 1.04253 0 0 1-.04025.602 1.64843 1.64843 0 0 1-.29084.47843 2.94456 2.94456 0 0 0-.81983-.1628 3.87177 3.87177 0 0 0-1.0658.07318 1.75193 1.75193 0 0 0-.81478.32917.47816.47816 0 0 0-.18852.458.37988.37988 0 0 0 .22889.28105 1.78667 1.78667 0 0 0 .54628.12524l.72314.08116a5.04233 5.04233 0 0 1 2.05065.6104 2.14331 2.14331 0 0 1 .97218 1.494 2.17845 2.17845 0 0 1-.50641 1.93537 4.11375 4.11375 0 0 1-2.39274 1.18025 5.95473 5.95473 0 0 1-1.11675.12247 3.50627 3.50627 0 0 1-.94073-.105 1.67018 1.67018 0 0 1-.68328-.34324 1.0356 1.0356 0 0 1-.33813-.59364.98282.98282 0 0 1 .09014-.67825 1.70161 1.70161 0 0 1 .39421-.49911 3.554 3.554 0 0 0 .97667.31168 3.12472 3.12472 0 0 0 1.17606-.02141 1.55107 1.55107 0 0 0 .84672-.37031.56409.56409 0 0 0 .167-.50034.4481.4481 0 0 0-.28382-.34933 2.70209 2.70209 0 0 0-.63-.14757ZM378.41275 92.66193a1.24905 1.24905 0 0 1-.3842.31034 2.03749 2.03749 0 0 1-.593.20553 2.1888 2.1888 0 0 1-.78641.03682.62153.62153 0 0 1-.47112-.31945q-.58426-1.05583-.9557-1.71013-.37155-.6521-.60422-1.15283l-.06473.013q.11378.76395.21855 1.3907.10562.62552.21749 1.21718.11031.592.21268 1.1986.10186.6067.20957 1.34581a2.38783 2.38783 0 0 1-.41469.19591 3.29813 3.29813 0 0 1-.52976.15269 1.81662 1.81662 0 0 1-.915-.00367.69906.69906 0 0 1-.445-.59071l-.93757-6.61756a1.25345 1.25345 0 0 1 .37708-.449 2.07253 2.07253 0 0 1 .93651-.38828 2.27526 2.27526 0 0 1 1.10736-.00114 1.27967 1.27967 0 0 1 .7021.57293c.11842.19022.24791.40863.39076.65586q.21585.37053.43483.76757c.1462.26394.28905.52745.43024.788s.26858.49571.38178.70327l.06369-.01275q.09292-1.1392.199-2.20722.10545-1.06842.22724-1.80024a2.0506 2.0506 0 0 1 .45916-.27213 3.01488 3.01488 0 0 1 .65922-.20574 2.49637 2.49637 0 0 1 1.06351-.01952.7522.7522 0 0 1 .568.44013q.10308.24651.26757.76739.16291.52119.36115 1.1754.1977.65432.41087 1.38588.21306.73106.40837 1.40594.19519.67436.34758 1.23784c.10236.37586.17756.66486.22707.86887a1.69953 1.69953 0 0 1-.418.27693 2.69923 2.69923 0 0 1-.59825.17943 1.86651 1.86651 0 0 1-.85385-.0018.71992.71992 0 0 1-.49015-.58277q-.35658-1.38318-.59933-2.49594-.24348-1.111-.43325-1.86137l-.06369.01275q-.02814.52685-.12 1.33247Q378.52321 91.41225 378.41275 92.66193ZM383.85516 85.71574a2.76515 2.76515 0 0 1 .612-.37656 3.5695 3.5695 0 0 1 .86866-.29326 3.26529 3.26529 0 0 1 1.17209-.04124 1.0083 1.0083 0 0 1 .75157.45661q.36528.62079.81181 1.45226.44643.83094.90455 1.72037.458.88889.89849 1.75524.4386.86508.7736 1.53265a1.0749 1.0749 0 0 1-.40486.38071 2.22377 2.22377 0 0 1-.70891.25587 2.33368 2.33368 0 0 1-.53019.05287.9424.9424 0 0 1-.37755-.08516.75867.75867 0 0 1-.27106-.22591 2.29851 2.29851 0 0 1-.22514-.35456l-.4079-.8392-2.322.46462c-.01773.26959-.03253.54836-.04649.83674-.01313.28713-.029.56611-.04566.83549a3.4121 3.4121 0 0 1-.35706.18546 2.30392 2.30392 0 0 1-.47233.1412 1.71166 1.71166 0 0 1-1.01277-.03081.73536.73536 0 0 1-.43878-.55938 1.31824 1.31824 0 0 1-.0207-.3694c.00938-.12675.01981-.27543.03-.44687.01438-.24286.03962-.54544.07864-.90941q.057-.54565.13082-1.18046.07323-.63523.16526-1.3068.09172-.67313.17279-1.26921c.05405-.39738.10559-.753.154-1.06456C383.78733 86.12022 383.82531 85.88133 383.85516 85.71574Zm1.87009 1.34691q-.07074.57446-.164 1.28048-.09171.70572-.13581 1.42144l1.59116-.31838q-.31891-.65775-.63638-1.281-.3183-.622-.57769-1.118ZM389.74887 86.16416a1.65209 1.65209 0 0 1-.24414-.35184 1.726 1.726 0 0 1-.17983-.49718.98974.98974 0 0 1 .08074-.76323.815.815 0 0 1 .54-.335l5.59413-1.11935a1.82573 1.82573 0 0 1 .42293.84922.987.987 0 0 1-.08074.76324.81933.81933 0 0 1-.54.335l-1.42411.285 1.186 5.92718a3.81121 3.81121 0 0 1-.42722.16584 4.907 4.907 0 0 1-.58865.15688 2.69447 2.69447 0 0 1-.52893.05914.92558.92558 0 0 1-.40991-.08411.70143.70143 0 0 1-.29488-.27436 1.57227 1.57227 0 0 1-.18506-.52328l-.9961-4.97813ZM397.01038 84.71117a1.65172 1.65172 0 0 1-.24414-.35184 1.72634 1.72634 0 0 1-.17984-.49718.98973.98973 0 0 1 .08075-.76323.815.815 0 0 1 .54-.335l5.59412-1.11935a1.82561 1.82561 0 0 1 .42294.84922.987.987 0 0 1-.08075.76324.81933.81933 0 0 1-.54.335l-1.42411.285 1.186 5.92718a3.81075 3.81075 0 0 1-.42723.16584 4.90638 4.90638 0 0 1-.58864.15688 2.69455 2.69455 0 0 1-.52893.05914.92562.92562 0 0 1-.40992-.08411.70141.70141 0 0 1-.29487-.27436 1.57227 1.57227 0 0 1-.18506-.52328l-.9961-4.97813ZM404.38187 82.60854a1.13023 1.13023 0 0 1 .95459-1.43216l4.2337-.84714a1.59263 1.59263 0 0 1 .23433.34076 1.69188 1.69188 0 0 1 .16856.47338.95717.95717 0 0 1-.07344.73463.783.783 0 0 1-.51742.31745l-2.70623.5415.23879 1.19337 2.8858-.57743a1.55631 1.55631 0 0 1 .23391.33325 1.6285 1.6285 0 0 1 .16731.46711.97623.97623 0 0 1-.06718.73337.76.76 0 0 1-.51011.316l-2.36064.47235.2695 1.34685 3.29717-.65975a1.58259 1.58259 0 0 1 .23411.33973 1.70161 1.70161 0 0 1 .16856.47337.98224.98224 0 0 1-.072.74194.76908.76908 0 0 1-.51512.32351L406.9 88.9902a1.12885 1.12885 0 0 1-1.43216-.95459ZM414.45879 84.82276l.49282 2.463a3.85338 3.85338 0 0 1-.42722.16584 4.91811 4.91811 0 0 1-.58865.15687 2.69463 2.69463 0 0 1-.52893.05915.87948.87948 0 0 1-.40469-.08516.73783.73783 0 0 1-.28862-.27562 1.60044 1.60044 0 0 1-.184-.52349l-1.20919-6.04307a.57455.57455 0 0 1 .06386-.446 1.07062 1.07062 0 0 1 .35642-.3189 4.92769 4.92769 0 0 1 .96888-.42733 10.38162 10.38162 0 0 1 1.218-.31647 4.18223 4.18223 0 0 1 2.81635.20961 2.52616 2.52616 0 0 1 1.30193 1.83413 2.29348 2.29348 0 0 1-.13915 1.44274 2.9988 2.9988 0 0 1-.80051 1.068q.58767.53558 1.14755.99742a7.71038 7.71038 0 0 1 .90614.86 1.23772 1.23772 0 0 1-.33153.77976 1.33227 1.33227 0 0 1-.7158.38972 1.67655 1.67655 0 0 1-.50032.03387 1.19378 1.19378 0 0 1-.39509-.10771 1.5064 1.5064 0 0 1-.33852-.22654 3.79868 3.79868 0 0 1-.31618-.31028l-1.42385-1.51547Zm.46653-1.86876a1.14434 1.14434 0 0 0 .71955-.4035.95556.95556 0 0 0 .13524-.79477.9041.9041 0 0 0-.46175-.67423 1.62765 1.62765 0 0 0-1.04514-.05148 3.05236 3.05236 0 0 0-.30549.07415c-.07455.02361-.15745.05431-.24807.08982l.385 1.92422Z"></path>
      <path fill="#8c4d3e" d="M366.39485,126.274l5.2909,9.10981c.84919,1.46212,1.76073,1.71226,2.48647,1.31142a4.79534,4.79534,0,0,0,3.18825-2.427,7.26172,7.26172,0,0,0,.47916-2.96975l-.06135-1.53879a6.30257,6.30257,0,0,0-4.02853-5.63708l-.5335-.20982a7.64364,7.64364,0,0,0-3.09722-.52386,7.88374,7.88374,0,0,0-3.08031.75755A1.49633,1.49633,0,0,0,366.39485,126.274Z"></path>
      <path fill="#200100" d="m367.36661 127.94712.47673.82083 3.20969-1.86416a.47461.47461 0 0 0-.47673-.82083ZM368.64343 130.14554l.47673.82083 3.2097-1.86416a.47462.47462 0 0 0-.47674-.82083ZM369.92025 132.344l.47674.82083 3.20969-1.86417a.47461.47461 0 0 0-.47673-.82083ZM371.19708 134.54238l.47673.82083 3.20969-1.86417a.47461.47461 0 0 0-.47673-.82083Z"></path>
      <line x2="432" y1="399.433" y2="399.433" fill="none" stroke="#020202" stroke-miterlimit="10"></line>
      <path fill="#200100" d="M146.20609,75.20121l-.00511-.0073a5.06,5.06,0,0,0-9.19021,3.31043l.00073.00888a5.06,5.06,0,0,1-6.96436,5.09216l-.00824-.00338a5.06,5.06,0,0,0-5.94154,7.75352l.00541.00708a5.06,5.06,0,0,1-3.10576,8.049l-.00876.00161a5.06,5.06,0,0,0-.80648,9.73491l.00838.003a5.06,5.06,0,0,1,1.7389,8.45037l-.0065.00609a5.06,5.06,0,0,0,4.58464,8.62554l.00868-.002A5.06,5.06,0,0,1,132.54734,132.4l-.00218.00864a5.06,5.06,0,0,0,8.52017,4.77762l.00624-.00636a5.06,5.06,0,0,1,8.40908,1.92866l.00284.00844a5.06,5.06,0,0,0,9.7506-.58716l.00181-.00872a5.06,5.06,0,0,1,8.11688-2.92381l.007.00557a5.06,5.06,0,0,0,7.88529-5.76552l-.0032-.00832a5.06,5.06,0,0,1,5.24762-6.848l.00886.00092a5.06,5.06,0,0,0,3.51645-9.11337l-.00718-.00526a5.06,5.06,0,0,1,.71228-8.598l.008-.004a5.06,5.06,0,0,0-1.96884-9.56779l-.00889-.00054a5.06,5.06,0,0,1-4.0492-7.61816l.00452-.00768a5.06,5.06,0,0,0-6.829-6.9845l-.00778.00434a5.06,5.06,0,0,1-7.52509-4.21964l-.00035-.0089a5.06,5.06,0,0,0-9.52105-2.18369l-.00419.00786A5.06,5.06,0,0,1,146.20609,75.20121Z"></path>
      <path fill="#b86a4b" d="M139.28505,113.09514c.01858-.00112.03606.0037.05459.00283-.02527-9.6112,5.76561-17.54443,13.40765-18.00461s14.34312,6.7208,15.47137,16.26558c.01851-.00136.03528-.00824.05386-.00936a4.70742,4.70742,0,0,1,.56262,9.34306,3.77571,3.77571,0,0,1-1.34344-.1819c-1.41461,4.82825-4.40186,8.67615-8.237,10.48709l.01467.00083.56273,11.87535-.19573,8.72749-11.98694-.42025.1149-7.1158.298-13.69971.0316.00177a17.521,17.521,0,0,1-6.93439-8.27112,3.77524,3.77524,0,0,1-1.3119.34181,4.70742,4.70742,0,0,1-.56262-9.34306Z"></path>
      <path fill="#200100" d="M157.74483 131.59488a6.64327 6.64327 0 0 1-2.02551.81738 9.08493 9.08493 0 0 1-2.18078.24707 7.60774 7.60774 0 0 1-2.187-.38086 4.69749 4.69749 0 0 1-1.866-1.18115 19.46429 19.46429 0 0 0 2.05076.42334c.67538.07177 1.34359.1289 2.02223.13916C154.92 131.68814 156.28168 131.60025 157.74483 131.59488ZM154.97225 114.07388a7.66922 7.66922 0 0 1 1.03758 1.94531 7.54161 7.54161 0 0 1 .49206 2.18946 3.67063 3.67063 0 0 1-.13274 1.22021 1.48538 1.48538 0 0 1-1.00636 1.02295 1.84 1.84 0 0 1-1.2473-.20313 3.66066 3.66066 0 0 1-.91486-.6582 3.71535 3.71535 0 0 0 1.92254.11865c.34383-.16943.42752-.793.38047-1.45263a20.00364 20.00364 0 0 0-.24536-2.03858C155.1498 115.52115 155.03475 114.81607 154.97225 114.07388ZM165.23948 108.32075s-4.51807-1.87388-6.87656 2.42432M151.3996 110.93275s-2.12084-4.40754-6.74329-2.77354"></path>
      <ellipse cx="160.467" cy="114.494" fill="#200100" rx="1.02" ry="1.53" transform="rotate(-3.446 160.467 114.494)"></ellipse>
      <ellipse cx="148.823" cy="114.775" fill="#200100" rx="1.02" ry="1.53" transform="rotate(-3.446 148.823 114.775)"></ellipse>
      <path fill="#200100" d="M171.47192 116.56656a8.09769 8.09769 0 0 0-1.74374-1.0752 1.73721 1.73721 0 0 0-.82937-.09863c-.31926.01465-.66137.12109-1.09252.19238a1.78743 1.78743 0 0 1 .85477-.93555 1.72308 1.72308 0 0 1 1.39108-.10351 2.13341 2.13341 0 0 1 1.04838.83008A2.037 2.037 0 0 1 171.47192 116.56656ZM136.93448 118.64663a2.03719 2.03719 0 0 1 .22583-1.22656 2.13679 2.13679 0 0 1 .94117-.95019 1.72375 1.72375 0 0 1 1.39346-.064 1.78892 1.78892 0 0 1 .9609.82617c-.43659-.019-.789-.08349-1.10774-.06006a1.73891 1.73891 0 0 0-.81154.19776A8.0755 8.0755 0 0 0 136.93448 118.64663Z"></path>
      <path fill="#200100" d="M167.09777,106.13687s-4.84973-1.00714-6.5209-8.79539c0,0-.05983,9.65213-20.24959,9.43247l.13139,8.50463-4.91479-6.4201s3.99979-17.90322,19.947-16.69527a15.4024,15.4024,0,0,1,7.12893,2.62256,22.42769,22.42769,0,0,1,9.73476,15.32653l.27374,1.69633s-3.64544-5.38044-5.73527,4.5767Z"></path>
      <path fill="#2c66bf" d="M166.84275,99.58462a27.05738,27.05738,0,0,0-6.3993-4.728,14.27993,14.27993,0,0,0-7.31547-1.69677,15.98849,15.98849,0,0,0-7.21985,2.2705,43.27316,43.27316,0,0,0-6.48075,4.72315,21.70122,21.70122,0,0,1,5.63767-6.03662,16.8277,16.8277,0,0,1,3.72821-2.05469,14.509,14.509,0,0,1,4.24161-.89892,13.5356,13.5356,0,0,1,4.31666.52539,14.67423,14.67423,0,0,1,3.87529,1.82519A17.0538,17.0538,0,0,1,166.84275,99.58462Z"></path>
      <path fill="#b86a4b" d="M112.15864,236.46832l-2.11664,15.7245a5.72539,5.72539,0,0,0,1.55824,4.709l6.27658,6.66242a1.7558,1.7558,0,0,0,1.37014.52652h0a1.61313,1.61313,0,0,0,1.60433-1.61372h0a3.3783,3.3783,0,0,0-.95444-2.1595l-4.80951-5.01821s.21383-7.22156.40372-6.15013l2.53213,3.337a1.30031,1.30031,0,0,0,2.07451-.08522h0a1.02458,1.02458,0,0,0,.16953-.67231,5.4662,5.4662,0,0,0-.92277-2.42712l-.71126-1.04056s1.03057-8.10619-1.04141-12.08174Z"></path>
      <polygon fill="#b86a4b" points="115.512 184.553 111.228 243.905 118.496 240.634 127.758 189.911 115.512 184.553"></polygon>
      <path fill="#b86a4b" d="M197.06525,370.29585l2.0645,12.02955,14.85328,10.98s-17.46,6.3-26.28-3.06l1.8-8.28-4.14-10.62Z"></path>
      <path fill="#2c66bf" d="M219.743,399.4254s-19.62.36808-24.3-4.046v4.05348h-8.64s-2.7143-14.44976,1.88285-13.70864,20.96172,13.235,21.32943,4.64806l6.41992,3.3045a6.09906,6.09906,0,0,1,3.3078,5.42286Z"></path>
      <path fill="#b86a4b" d="M128.04081,370.29585l-.06451,12.02955-14.85327,10.98s17.46,6.3,26.28-3.06l-1.8-8.28,2.14-10.62Z"></path>
      <path fill="#2c66bf" d="M107.363,399.4254s19.62.36808,24.3-4.046v4.05348h8.64s2.71429-14.44976-1.88285-13.70864-20.96172,13.235-21.32944,4.64806l-6.41992,3.3045a6.09907,6.09907,0,0,0-3.30779,5.42286Z"></path>
      <path fill="#fa81a2" d="M161.843,196.86538l7.27524,13.025a86.24848,86.24848,0,0,1,9.96038,29.031l20.59442,134.61H183.16014L150.353,229.2654h-1.42666l-5.56334,142.08h-17.76l-4.664-127.57568a75.729,75.729,0,0,1,6.30623-33.6619,52.69882,52.69882,0,0,1,8.19779-13.24244Z"></path>
      <path fill="#e06c96" d="M155.933 229.53531a30.79893 30.79893 0 0 1-5.8896.0332 30.48359 30.48359 0 0 1-5.8104-.96289 30.44464 30.44464 0 0 1 5.88959-.03321A30.83722 30.83722 0 0 1 155.933 229.53531ZM133.76263 209.73786a.49985.49985 0 0 1-.47852-.64453l.29-.957a.49987.49987 0 1 1 .957.28906l-.29.957A.49942.49942 0 0 1 133.76263 209.73786ZM130.09222 221.84822a.50013.50013 0 0 1-.47852-.64551l.61182-2.01856a.50015.50015 0 0 1 .957.291l-.61182 2.01855A.49974.49974 0 0 1 130.09222 221.84822Zm1.22363-4.03614a.5001.5001 0 0 1-.47852-.64551l.61182-2.01855a.50015.50015 0 0 1 .957.291l-.61181 2.01855A.49974.49974 0 0 1 131.31585 217.81208Zm1.22363-4.03711a.50009.50009 0 0 1-.47851-.6455l.61181-2.01856a.50015.50015 0 0 1 .957.291l-.61181 2.01855A.49973.49973 0 0 1 132.53948 213.775ZM129.19036 224.8238a.49984.49984 0 0 1-.47851-.64453l.29-.957a.49987.49987 0 1 1 .957.28906l-.29.957A.49942.49942 0 0 1 129.19036 224.8238Z"></path>
      <path fill="#4285f4" d="M114.49054,194.0454l2.4245-31.66995a16.74132,16.74132,0,0,1,7.97062-13.00837,31.88129,31.88129,0,0,1,8.54511-3.65,61.94876,61.94876,0,0,1,14.33361-1.65158s4.862,13.91992,12.062,0l10.03128,3.34746A21.95614,21.95614,0,0,1,182.848,159.16274l10.73569,17.6637v20.835l-22.99357-20.36776L161.843,196.86538h-26.4l-5.83142-20.03894-2.12429,17.219Z"></path>
      <path fill="#2c66bf" d="M176.003 166.3854a33.14633 33.14633 0 0 1-2.25883 5.67627 32.75112 32.75112 0 0 1-3.15408 5.23194 32.76943 32.76943 0 0 1 2.25883-5.67627A33.12778 33.12778 0 0 1 176.003 166.3854ZM129.61161 176.82632a47.92224 47.92224 0 0 1-2.60258-6.87549 47.37021 47.37021 0 0 1-1.646-7.16552 47.37224 47.37224 0 0 1 2.60257 6.876A47.90245 47.90245 0 0 1 129.61161 176.82632Z"></path>
      <circle cx="156.29" cy="125.541" r="2.204" fill="#200100"></circle>
      <path fill="#e26a90" d="M147.38846 121.83a1.5009 1.5009 0 0 0 0-3 1.5009 1.5009 0 0 0 0 3ZM163.34846 121.59a1.5009 1.5009 0 0 0 0-3 1.5009 1.5009 0 0 0 0 3Z"></path>
      <path fill="#b86a4b" d="M197.00907,137.74566l8.10405,3.6593-1.14159,3.46591-1.60287,44.67266a8.41617,8.41617,0,0,1-14.1,5.96817h0a37.28631,37.28631,0,0,1-.69353-21.52255Z"></path>
      <path fill="#b86a4b" d="M197.11674,138.20193s-2.48483-10.1454-2.11779-16.94077l.02275-.06613h0a2.49284,2.49284,0,0,1,.88894-1.22548,1.56968,1.56968,0,0,1,2.34773.30658,2.56378,2.56378,0,0,1,.57991,1.4736l.21555,2.89305s8.84939-1.412,11.89484,3.5652a5.41126,5.41126,0,0,1,.73549,3.32173h0c-1.56185,5.52913-7.00288,10.27285-7.00288,10.27285Z"></path>
      <circle cx="235.937" cy="104.822" r="4.632" fill="#fcca86"></circle>
      <polygon fill="#3f3838" points="197.224 120.804 202.67 140.986 210.873 139.499 205.898 119.608 197.224 120.804"></polygon>
      <path fill="#df382b" d="M189.81634,106.81094l16.91612-3.69913,3.33012,16.46577L193.822,122.72319S190.12091,117.28768,189.81634,106.81094Z"></path>
      <path fill="#fcca86" d="M206.73246,103.11181s17.40095-5.97819,23.35425-15.93714l7.88645,36.2079a42.54259,42.54259,0,0,0-27.91058-3.805Z"></path>
      <path fill="#df382b" d="M238.98238,125.71544a1.50124,1.50124,0,0,1-1.32087-1.18916l-8.18586-39.44362a1.501,1.501,0,0,1,2.93925-.61013l8.18582,39.444a1.5022,1.5022,0,0,1-1.61834,1.79887Z"></path>
      <path fill="#b86a4b" d="M200.93827,125.99748l1.71861,10.80652c.27584,1.73444,1.06552,2.31783,1.91869,2.20094,0,0,1.05871,1.02634,3.95232-1.44978a5.50836,5.50836,0,0,0,1.62027-2.40743l.51623-1.514a6.54634,6.54634,0,0,0-1.7946-6.96928l-.43845-.40289a7.93922,7.93922,0,0,0-2.80513-1.66632,8.18877,8.18877,0,0,0-3.26812-.41835A1.55423,1.55423,0,0,0,200.93827,125.99748Z"></path>
      <path fill="#200100" d="m201.25392 127.98227.15485.97371 3.80751-.60552a.493.493 0 0 0-.15486-.97371ZM201.66866 130.59015l.15486.97371 3.8075-.60553a.493.493 0 0 0-.15485-.97371ZM202.08341 133.198l.15485.97371 3.8075-.60553a.493.493 0 0 0-.15485-.9737ZM202.49815 135.8059l.15485.97371 3.80751-.60553a.493.493 0 0 0-.15486-.97371Z"></path>
      <path fill="#200100" d="M202.84849,124.15508a1.90105,1.90105,0,0,0-1.31579.54688,1.96355,1.96355,0,0,0-.462,1.30468l-.00146-.02685c.44842,2.33886.8407,4.68506,1.19452,7.03857.176,1.17725.3584,2.353.50329,3.53565a5.01694,5.01694,0,0,0,.364,1.69531,1.44711,1.44711,0,0,0,1.44452.75586,1.5,1.5,0,0,1-1.59839-.66016,1.97939,1.97939,0,0,1-.3368-.86133l-.16485-.87744c-.229-1.168-.42053-2.34326-.61835-3.51758-.394-2.34814-.74957-4.7041-1.04889-7.06738l-.00238-.019.00092-.0083a2.72583,2.72583,0,0,1,.17047-.76221,1.67738,1.67738,0,0,1,.44775-.64111A1.87852,1.87852,0,0,1,202.84849,124.15508Z"></path>
    </g>
  </g>
</svg>
