<svg xmlns="http://www.w3.org/2000/svg" xml:space="preserve" style="enable-background:new 0 0 1000 1000" viewBox="0 0 1000 1000" id="city-road">
  <path d="M0 0h1000v1000H0z" style="fill:#e0f4fb"></path>
  <path d="m562.658 315.667 21.408 23.904" style="opacity:.15;fill:none;stroke:#135677;stroke-width:4;stroke-linecap:round;stroke-linejoin:round;stroke-miterlimit:10"></path>
  <g style="opacity:.6">
    <g style="opacity:.15">
      <path d="M108.78 328.994h152.53v371.597H108.78zM142 698V329M230 698V329M186 698V329M109 368h153M109 387h153M109 434h153M109 455h153M109 504h153M109 525h153M109 576h153M109 596h153M109 639h153M109 658h153" style="fill:none;stroke:#02283f;stroke-width:4;stroke-linecap:round;stroke-linejoin:round;stroke-miterlimit:10"></path>
      <path d="M142.798 296.39h87.741v33.39h-87.741zM163.21 263h46.917v33.39H163.21z" style="fill:none;stroke:#02283f;stroke-width:4;stroke-linecap:round;stroke-linejoin:round;stroke-miterlimit:10"></path>
    </g>
    <g style="opacity:.15">
      <path d="M748.333 699.677h-61.825V327.599H849.5v372.078h-48" style="fill:none;stroke:#02283f;stroke-width:4;stroke-linecap:round;stroke-linejoin:round;stroke-miterlimit:10"></path>
      <path d="M707.554 361.729h19.702v34.604h-19.702zM741.286 361.729h19.702v34.604h-19.702zM775.019 361.729h19.702v34.604h-19.702zM808.752 361.729h19.702v34.604h-19.702zM707.554 413.729h19.702v34.604h-19.702zM741.286 413.729h19.702v34.604h-19.702zM775.019 413.729h19.702v34.604h-19.702zM808.752 413.729h19.702v34.604h-19.702zM707.554 512.698h19.702v29.635h-19.702zM741.286 512.698h19.702v29.635h-19.702zM775.019 512.698h19.702v29.635h-19.702zM808.752 512.698h19.702v29.635h-19.702zM707.554 618.127h19.702v29.635h-19.702zM741.286 618.127h19.702v29.635h-19.702zM775.019 618.127h19.702v29.635h-19.702zM808.752 618.127h19.702v29.635h-19.702zM707 478h121M707 494h121M707 562h121M707 579h121M707 596h121M717.405 292h110.602v35.599H717.405zM741.286 256.401h62.838V292h-62.838zM771 256v-56" style="fill:none;stroke:#02283f;stroke-width:4;stroke-linecap:round;stroke-linejoin:round;stroke-miterlimit:10"></path>
    </g>
    <g style="opacity:.15">
      <path d="M604.744 700h-84.171V339.099l42.085-45.899 42.086 45.899z" style="fill:none;stroke:#02283f;stroke-width:4;stroke-linecap:round;stroke-linejoin:round;stroke-miterlimit:10"></path>
      <path d="M675.208 700h-70.464V409.144c0-40.56 26.695-47.197 70.464-68.345V700z" style="fill:none;stroke:#02283f;stroke-width:4;stroke-linecap:round;stroke-linejoin:round;stroke-miterlimit:10"></path>
      <path d="M630 620v18M649 620v18M630 582v18M649 582v18M630 544v18M649 544v18M630 506v18M649 506v18M630 468v18M649 468v18M630 430v18M649 430v18M630 392v18M649 392v18" style="fill:none;stroke:#02283f;stroke-width:4;stroke-linejoin:round;stroke-miterlimit:10"></path>
      <path d="M449.812 700h70.464V409.144c0-40.56-26.695-47.197-70.464-68.345V700z" style="fill:none;stroke:#02283f;stroke-width:4;stroke-linecap:round;stroke-linejoin:round;stroke-miterlimit:10"></path>
      <path d="M492 620v18M474 620v18M492 582v18M474 582v18M492 544v18M474 544v18M492 506v18M474 506v18M492 468v18M474 468v18M492 430v18M474 430v18M492 392v18M474 392v18" style="fill:none;stroke:#02283f;stroke-width:4;stroke-linejoin:round;stroke-miterlimit:10"></path>
      <path d="M546 352v259M582 352v259M534.605 604h55.525M534.605 566h55.525M534.605 528h55.525M534.605 490h55.525M534.605 452h55.525M534.605 414h55.525M534.605 376h55.525" style="fill:none;stroke:#02283f;stroke-width:4;stroke-linecap:round;stroke-linejoin:round;stroke-miterlimit:10"></path>
    </g>
    <g style="opacity:.15">
      <path d="M286.833 293.2h147.105v406.476H286.833z" style="fill:none;stroke:#02283f;stroke-width:4;stroke-linecap:round;stroke-linejoin:round;stroke-miterlimit:10"></path>
      <path d="M306.403 323.431h17.27V612.04h-17.27zM337.049 323.431h17.27V612.04h-17.27zM367.696 323.431h17.27V612.04h-17.27zM398.342 323.431h17.27V612.04h-17.27zM367.696 252h47.916v41.2h-47.916zM390 252v-36M304.456 266.333h45.365V293.2h-45.365z" style="fill:none;stroke:#02283f;stroke-width:4;stroke-linecap:round;stroke-linejoin:round;stroke-miterlimit:10"></path>
    </g>
  </g>
  <path d="M209.846 388.474a23.51 23.51 0 0 0-29.693 0c-30.037 24.443-66.142 72.268-61.796 127.933 1.082 13.458 4.392 26.441 9.148 38.674.341.876.734 1.739 1.178 2.569 31.572 59.089 101.06 59.089 132.632 0 .443-.83.837-1.692 1.178-2.568 4.757-12.233 8.066-25.216 9.148-38.674 4.347-55.667-31.758-103.491-61.795-127.934z" style="fill:#ffbf73"></path>
  <path d="M234.705 566.74c-34.957 0-63.295-44.326-63.295-99.005 0-35.274 11.796-66.235 29.552-83.771a23.505 23.505 0 0 0-20.808 4.51c-30.037 24.443-66.142 72.268-61.796 127.933 1.082 13.458 4.392 26.441 9.148 38.674.341.876.734 1.739 1.178 2.569 31.572 59.089 101.06 59.089 132.632 0 .018-.034.033-.069.051-.103-8.104 5.895-17.136 9.193-26.662 9.193z" style="opacity:.43;fill:#ffbf73"></path>
  <path d="M195 698V485" style="fill:none;stroke:#135677;stroke-width:8;stroke-linecap:round;stroke-linejoin:round;stroke-miterlimit:10"></path>
  <path d="M98 700.929C98 669.488 123.488 644 154.929 644s56.929 25.488 56.929 56.929" style="fill:#ffbf73"></path>
  <path d="M170.464 646.164A56.922 56.922 0 0 0 154.928 644C123.488 644 98 669.488 98 700.929h31.071c0-26.053 17.507-48.002 41.393-54.765z" style="opacity:.43;fill:#ffbf73"></path>
  <path d="M285.584 628.205c-1.878-16.234.791-52.173 8.658-76.093 5.18-15.749 10.027-37.15 31.386-49.142 17.626-9.895 131.619-17.98 195.448-11.508 35.575 3.607 65.084 38.523 83.463 67.486 60.607 11.132 62.124 11.14 76.348 15.469 14.224 4.329 28.109 15.16 28.109 31.548v39.694H287.284c-.618-10-1.082-7.559-1.7-17.454z" style="fill:#4dcbab"></path>
  <path d="M681.887 571.417c-14.224-4.329-15.741-4.337-76.348-15.469-18.379-28.963-47.888-63.879-83.463-67.486-63.829-6.471-177.823 1.613-195.448 11.508-4.791 2.689-8.745 5.855-12.064 9.321l.103-.061c17.626-9.895 131.619-17.98 195.448-11.508 33.511 3.397 63.963 34.577 82.746 62.392 2.223 3.292 5.706 5.529 9.613 6.248 54.271 9.984 53.738 10.141 67.453 14.315 14.224 4.329 28.109 15.16 28.109 31.548v30.434h11.961v-39.694c-.001-16.389-13.886-27.219-28.11-31.548z" style="opacity:.49;fill:#4dcbab"></path>
  <path d="M514.996 553.659v89.183M374.979 553.673l-2.276 89.154" style="opacity:.21;fill:none;stroke:#72757c;stroke-width:3;stroke-linecap:round;stroke-miterlimit:10"></path>
  <path d="M324.759 552.112c5.18-15.749 10.027-37.15 31.386-49.142 12.087-6.786 69.494-12.719 124.963-13.692-63.006-1.211-141.14 5.641-155.48 13.692-21.359 11.991-26.206 33.392-31.386 49.142-7.867 23.92-10.536 59.859-8.658 76.093.618 9.895 1.082 7.454 1.701 17.454h30.517c-.618-10-1.082-7.559-1.701-17.454-1.879-16.234.79-52.173 8.658-76.093z" style="opacity:.2;fill:#72757c"></path>
  <path d="M285.584 628.205c-1.878-16.234.791-52.173 8.658-76.093 5.18-15.749 10.027-37.15 31.386-49.142 17.626-9.895 131.619-17.98 195.448-11.508 33.352 3.381 61.372 34.281 79.888 61.995 2.37 3.547 6.109 5.957 10.305 6.726 54.013 9.904 55.941 10.071 69.618 14.234 14.224 4.329 28.109 15.16 28.109 31.548v39.694H287.284c-.618-10-1.082-7.559-1.7-17.454z" style="fill:none;stroke:#135677;stroke-width:8;stroke-linecap:round;stroke-linejoin:round;stroke-miterlimit:10"></path>
  <path d="M515.109 559.282c-7.4-23.87-20.236-44.709-29.523-57.791 12.859.518 24.313 1.366 34.135 2.529 29.583 3.507 54.049 31.462 70.326 56.519l-74.938-1.257z" style="fill:#ffc88d"></path>
  <path d="M530.163 539.486c-5.497-9.954 2.412-21.995 13.728-20.875 2.097.208 4.13.428 6.098.661 1.699.201 3.38.493 5.045.85-10.645-8.472-22.497-14.583-35.312-16.102-9.822-1.163-21.276-2.01-34.135-2.529 9.288 13.082 22.123 33.921 29.523 57.791l24.854.417c-3.004-7.209-6.37-14-9.801-20.213z" style="opacity:.2;fill:#ffbf73"></path>
  <path d="M515.109 559.282c-7.4-23.87-20.236-44.709-29.523-57.791 12.859.518 24.313 1.366 34.135 2.529 29.583 3.507 54.049 31.462 70.326 56.519l-74.938-1.257z" style="fill:none;stroke:#135677;stroke-width:8;stroke-linecap:round;stroke-linejoin:round;stroke-miterlimit:10"></path>
  <path d="m385.013 558.287 4.257-53.207c23.33-1.669 48.973-2.503 72.605-2.354 2.484.016 4.953.042 7.404.081 9.025 11.237 23.816 31.941 32.48 56.218l-116.746-.738z" style="fill:#ffc88d"></path>
  <path d="M403.058 532.008c.72-9.204 9.115-16.516 19.627-17.058 17.31-.892 35.234-1.315 52.102-1.208.925.006 1.837.021 2.757.03a230.344 230.344 0 0 0-8.266-10.966 816.926 816.926 0 0 0-7.404-.081c-23.632-.149-49.275.684-72.605 2.354l-4.257 53.207 15.981.101 2.065-26.379z" style="opacity:.2;fill:#ffbf73"></path>
  <path d="m385.013 558.287 4.257-53.207c23.33-1.669 48.973-2.503 72.605-2.354 2.484.016 4.953.042 7.404.081 9.025 11.237 23.816 31.941 32.48 56.218l-116.746-.738z" style="fill:none;stroke:#135677;stroke-width:8;stroke-linecap:round;stroke-linejoin:round;stroke-miterlimit:10"></path>
  <path d="M356.771 658.842h-73.442c-9.941 0-18-8.059-18-18s8.059-18 18-18h73.442v36z" style="fill:#fff"></path>
  <path d="M286.829 645.559c0-9.941 8.059-18 18-18h51.942v-4.717h-73.442c-9.941 0-18 8.059-18 18s8.059 18 18 18h9.383c-3.606-3.292-5.883-8.016-5.883-13.283z" style="opacity:.2;fill:#72757c"></path>
  <path d="M356.771 658.842h-73.442c-9.941 0-18-8.059-18-18v0c0-9.941 8.059-18 18-18h73.442v36z" style="fill:none;stroke:#135677;stroke-width:8;stroke-linecap:round;stroke-linejoin:round;stroke-miterlimit:10"></path>
  <path d="M711.996 658.842h-60.141v-30h60.141c8.284 0 15 6.716 15 15 0 8.284-6.716 15-15 15z" style="fill:#fff"></path>
  <path d="M655.817 640.421h60.141c4.336 0 8.231 1.851 10.969 4.792.041-.452.069-.909.069-1.372 0-8.284-6.716-15-15-15h-60.141v30h3.961v-18.42z" style="opacity:.2;fill:#72757c"></path>
  <path d="M711.996 658.842h-60.141v-30h60.141c8.284 0 15 6.716 15 15v0c0 8.284-6.716 15-15 15z" style="fill:none;stroke:#135677;stroke-width:8;stroke-linecap:round;stroke-linejoin:round;stroke-miterlimit:10"></path>
  <path d="M389.945 642.842h185.532v16H389.945z" style="fill:#fff"></path>
  <path d="M389.945 642.842h185.532v8H389.945z" style="opacity:.2;fill:#72757c"></path>
  <path d="M389.945 642.842h185.532v16H389.945z" style="fill:none;stroke:#135677;stroke-width:8;stroke-linecap:round;stroke-linejoin:round;stroke-miterlimit:10"></path>
  <circle cx="620.315" cy="655.131" r="44.528" style="fill:#82818c"></circle>
  <circle cx="620.315" cy="655.131" r="44.528" style="fill:none;stroke:#135677;stroke-width:8;stroke-linecap:round;stroke-linejoin:round;stroke-miterlimit:10"></circle>
  <circle cx="620.315" cy="655.131" r="24.119" style="fill:#fff"></circle>
  <circle cx="620.315" cy="655.131" r="24.119" style="fill:none;stroke:#135677;stroke-width:8;stroke-linecap:round;stroke-linejoin:round;stroke-miterlimit:10"></circle>
  <circle cx="620.315" cy="655.131" r="7.421" style="fill:none;stroke:#135677;stroke-width:8;stroke-linecap:round;stroke-linejoin:round;stroke-miterlimit:10"></circle>
  <circle cx="362.425" cy="655.131" r="44.528" style="fill:#82818c"></circle>
  <circle cx="362.425" cy="655.131" r="44.528" style="fill:none;stroke:#135677;stroke-width:8;stroke-linecap:round;stroke-linejoin:round;stroke-miterlimit:10"></circle>
  <circle cx="362.425" cy="655.131" r="24.119" style="fill:#fff"></circle>
  <circle cx="362.425" cy="655.131" r="24.119" style="fill:none;stroke:#135677;stroke-width:8;stroke-linecap:round;stroke-linejoin:round;stroke-miterlimit:10"></circle>
  <circle cx="362.425" cy="655.131" r="7.421" style="fill:none;stroke:#135677;stroke-width:8;stroke-linecap:round;stroke-linejoin:round;stroke-miterlimit:10"></circle>
  <path d="M376.841 504.098c-26.479 2.833-40.11 6.256-44.061 8.653-15.747 9.559-20.477 25.764-24.65 40.062a440.33 440.33 0 0 1-1.363 4.607c-.124.406-.247.819-.369 1.239h66.934l3.509-54.561z" style="fill:#ffc88d"></path>
  <path d="M323.282 558.094c4.173-14.298 8.903-30.503 24.65-40.062 3.083-1.871 12.063-4.367 28.445-6.719l.464-7.215c-26.479 2.833-40.11 6.256-44.061 8.653-15.747 9.559-20.477 25.764-24.65 40.062a440.33 440.33 0 0 1-1.363 4.607c-.124.406-.247.819-.369 1.239h16.717l.167-.565z" style="opacity:.2;fill:#ffbf73"></path>
  <path d="M376.841 504.098c-26.479 2.833-40.11 6.256-44.061 8.653-15.747 9.559-20.477 25.764-24.65 40.062a440.33 440.33 0 0 1-1.363 4.607c-.124.406-.247.819-.369 1.239h66.934l3.509-54.561z" style="fill:none;stroke:#135677;stroke-width:8;stroke-linecap:round;stroke-linejoin:round;stroke-miterlimit:10"></path>
  <path d="M717.128 597.825c1.115 6.827-5.249 12.427-15.225 13.305-9.497.93-20.434-3.339-22.181-10.14-1.073-6.83 10.281-12.894 19.874-13.762 9.518-.939 16.176 3.78 17.532 10.597z" style="fill:#fff"></path>
  <path d="M717.128 597.825c1.115 6.827-5.249 12.427-15.225 13.305-9.497.93-20.434-3.339-22.181-10.14-1.073-6.83 10.281-12.894 19.874-13.762 9.518-.939 16.176 3.78 17.532 10.597zM544.019 576.659h-19M406.996 576.659h-20" style="fill:none;stroke:#135677;stroke-width:8;stroke-linecap:round;stroke-linejoin:round;stroke-miterlimit:10"></path>
  <path d="M215.844 455.48c-3.556 4.117-4.546 9.593-3.129 14.522 4.601.183 9.206-1.624 12.413-5.338 3.556-4.117 4.546-9.593 3.129-14.522-4.602-.182-9.206 1.625-12.413 5.338zM188.002 425.076c-.185 5.29 2.405 10.045 6.485 12.918 3.6-2.668 5.988-6.846 6.155-11.618.185-5.29-2.405-10.045-6.485-12.918-3.6 2.668-5.988 6.847-6.155 11.618zM158.074 471.31c1.389 5.26 5.35 9.169 10.217 10.784 2.749-3.694 3.858-8.514 2.605-13.258-1.389-5.26-5.35-9.169-10.217-10.784-2.749 3.693-3.858 8.514-2.605 13.258zM92.214 589.253c-1.159 5.316.585 10.599 4.183 14.254 4.13-2.036 7.313-5.822 8.359-10.616 1.16-5.316-.585-10.599-4.183-14.254-4.13 2.036-7.313 5.822-8.359 10.616zM225.26 546.724c-3.595 3.248-5.071 7.978-4.361 12.489 4.046.667 8.313-.424 11.556-3.353 3.595-3.248 5.071-7.978 4.361-12.489-4.047-.667-8.314.424-11.556 3.353z" style="fill:none;stroke:#135677;stroke-width:6;stroke-linecap:round;stroke-linejoin:round;stroke-miterlimit:10"></path>
  <path d="M164.308 538s9.165 24.667 30.692 26.333M194.853 538.608s19.466-8.405 21.118-28.89" style="fill:none;stroke:#135677;stroke-width:8;stroke-linecap:round;stroke-linejoin:round;stroke-miterlimit:10"></path>
  <path d="M143.795 697c-5.145-14.175-18.729-24.302-34.682-24.302S79.577 682.825 74.432 697h69.363z" style="fill:#ffbf73"></path>
  <path d="M121.673 674.895a36.804 36.804 0 0 0-12.559-2.197c-15.952 0-29.537 10.127-34.682 24.302h25.119a36.992 36.992 0 0 1 22.122-22.105z" style="fill:#ffaa58"></path>
  <path d="M267.5 699.677H68.138M748.333 699.677H283M782.75 699.677H769M931.862 699.677H799.75M155 666v31M174.672 678.005 155 697" style="fill:none;stroke:#135677;stroke-width:8;stroke-linecap:round;stroke-linejoin:round;stroke-miterlimit:10"></path>
  <path d="M887 442v255M841.745 397.058 887 442.312" style="fill:none;stroke:#135677;stroke-width:6;stroke-linecap:round;stroke-linejoin:round;stroke-miterlimit:10"></path>
  <path d="M822.328 421.463h49.525v19.58h-49.525z" style="fill:#ffbf73" transform="rotate(45.001 847.1 431.245)"></path>
  <path d="M822.328 421.463h49.525v19.58h-49.525z" style="fill:none;stroke:#135677;stroke-width:6;stroke-linecap:round;stroke-linejoin:round;stroke-miterlimit:10" transform="rotate(45.001 847.1 431.245)"></path>
  <path d="M899.691 490v207M944.946 445.058l-45.255 45.254" style="fill:none;stroke:#135677;stroke-width:6;stroke-linecap:round;stroke-linejoin:round;stroke-miterlimit:10"></path>
  <path d="M914.839 469.463h49.525v19.58h-49.525z" style="fill:#ffbf73" transform="rotate(134.999 939.606 479.253)"></path>
  <path d="M914.839 469.463h49.525v19.58h-49.525z" style="fill:none;stroke:#135677;stroke-width:6;stroke-linecap:round;stroke-linejoin:round;stroke-miterlimit:10" transform="rotate(134.999 939.606 479.253)"></path>
  <path d="M500 154.594v23.143M479.162 158.268l7.916 21.748M460.838 168.847l14.876 17.73M447.237 185.056l20.043 11.572M440 204.94l22.792 4.018M440 226.099l22.792-4.019M447.237 245.982l20.043-11.572M460.838 262.191l14.876-17.729M479.162 272.771l7.916-21.748M500 276.445v-23.144M520.838 272.771l-7.916-21.748M539.162 262.191l-14.876-17.729M552.763 245.982 532.72 234.41M560 226.099l-22.792-4.019M560 204.94l-22.792 4.018M552.763 185.056l-20.043 11.572M539.162 168.847l-14.876 17.73M520.838 158.268l-7.916 21.748" style="fill:none;stroke:#cce1ea;stroke-width:4;stroke-linecap:round;stroke-linejoin:round;stroke-miterlimit:10"></path>
  <circle cx="500" cy="215.519" r="20.838" style="fill:#ffbf73"></circle>
  <path d="M808.654 163.5c.059-.727.098-1.461.098-2.203 0-14.754-11.96-26.714-26.714-26.714a26.586 26.586 0 0 0-15.309 4.827c-3.202-11.165-13.48-19.338-25.674-19.338-2.091 0-4.122.248-6.074.702-6.738-7.531-16.527-12.274-27.427-12.274-18.718 0-34.16 13.979-36.483 32.064-.423-.026-.844-.064-1.273-.064-11.486 0-20.797 9.311-20.797 20.797 0 .745.043 1.479.119 2.203h159.534zM191.216 174.106c-4.519-6.443-12-10.655-20.468-10.655-1.956 0-3.857.232-5.684.657-6.304-7.046-15.463-11.484-25.662-11.484-17.513 0-31.962 13.08-34.136 30.001-.396-.024-.789-.06-1.192-.06-10.747 0-19.459 8.712-19.459 19.459 0 .697.04 1.384.111 2.061h101.898M272.002 212.333h86.072M331.178 234.41h20.892M307.27 222.08h38.666M527.446 93h65.108M562.658 108.5h77.318" style="fill:none;stroke:#cce1ea;stroke-width:4;stroke-linecap:round;stroke-linejoin:round;stroke-miterlimit:10"></path>
  <path d="M257.078 204.085a16.997 16.997 0 0 0 1.445-6.856c0-9.303-7.422-16.844-16.577-16.844-2.296 0-4.482.475-6.471 1.333-3.652-9.9-13.17-16.959-24.338-16.959-13.266 0-24.198 9.962-25.74 22.812a15.567 15.567 0 0 0-3.334-.37c-8.354 0-15.126 6.587-15.126 14.713 0 .74.074 1.461.183 2.172h89.958z" style="fill:none;stroke:#cce1ea;stroke-width:4;stroke-linecap:round;stroke-linejoin:round;stroke-miterlimit:10"></path>
</svg>
